<svg width="40" height="40" viewBox="0 0 40 40" fill="none" xmlns="http://www.w3.org/2000/svg">
<path opacity="0.3" fill-rule="evenodd" clip-rule="evenodd" d="M15.0007 18.3333C11.3188 18.3333 8.33398 15.3486 8.33398 11.6667C8.33398 7.98477 11.3188 5 15.0007 5C18.6825 5 21.6673 7.98477 21.6673 11.6667C21.6673 15.3486 18.6825 18.3333 15.0007 18.3333ZM31.0007 18.3333C30.4484 18.3333 30.0007 17.8856 30.0007 17.3333V13.3333H26.0007C25.4484 13.3333 25.0007 12.8856 25.0007 12.3333V11C25.0007 10.4477 25.4484 10 26.0007 10H30.0007V6C30.0007 5.44771 30.4484 5 31.0007 5H32.334C32.8863 5 33.334 5.44772 33.334 6V10H37.334C37.8863 10 38.334 10.4477 38.334 11V12.3333C38.334 12.8856 37.8863 13.3333 37.334 13.3333H33.334V17.3333C33.334 17.8856 32.8863 18.3333 32.334 18.3333H31.0007Z" fill="#6D36FB"/>
<path d="M0.00108614 33.6653C0.647098 25.7108 7.10319 21.6666 14.9722 21.6666C22.952 21.6666 29.5081 25.4886 29.9965 33.6666C30.016 33.9924 29.9965 35 28.7445 35C22.5685 35 13.3912 35 1.2125 35C0.79452 35 -0.0341029 34.0986 0.00108614 33.6653Z" fill="#6D36FB"/>
</svg>
