<svg width="40" height="40" viewBox="0 0 40 40" fill="none" xmlns="http://www.w3.org/2000/svg">
<path opacity="0.3" fill-rule="evenodd" clip-rule="evenodd" d="M14.9999 18.3333C11.318 18.3333 8.33325 15.3486 8.33325 11.6667C8.33325 7.98477 11.318 5 14.9999 5C18.6818 5 21.6666 7.98477 21.6666 11.6667C21.6666 15.3486 18.6818 18.3333 14.9999 18.3333ZM30.9999 18.3333C30.4476 18.3333 29.9999 17.8856 29.9999 17.3333V13.3333H25.9999C25.4476 13.3333 24.9999 12.8856 24.9999 12.3333V11C24.9999 10.4477 25.4476 10 25.9999 10H29.9999V6C29.9999 5.44771 30.4476 5 30.9999 5H32.3333C32.8855 5 33.3333 5.44772 33.3333 6V10H37.3333C37.8855 10 38.3333 10.4477 38.3333 11V12.3333C38.3333 12.8856 37.8855 13.3333 37.3333 13.3333H33.3333V17.3333C33.3333 17.8856 32.8855 18.3333 32.3333 18.3333H30.9999Z" fill="#D88100"/>
<path d="M0.00108614 33.6653C0.647098 25.7108 7.10319 21.6666 14.9722 21.6666C22.952 21.6666 29.5081 25.4886 29.9965 33.6666C30.016 33.9924 29.9965 35 28.7445 35C22.5685 35 13.3912 35 1.2125 35C0.79452 35 -0.0341029 34.0986 0.00108614 33.6653Z" fill="#D88100"/>
</svg>
