<svg width="39" height="40" viewBox="0 0 39 40" fill="none" xmlns="http://www.w3.org/2000/svg">
<path fill-rule="evenodd" clip-rule="evenodd" d="M14.2848 18.3333C10.7782 18.3333 7.93555 15.3486 7.93555 11.6667C7.93555 7.98477 10.7782 5 14.2848 5C17.7913 5 20.634 7.98477 20.634 11.6667C20.634 15.3486 17.7913 18.3333 14.2848 18.3333ZM29.5705 18.3333C29.0182 18.3333 28.5705 17.8856 28.5705 17.3333L28.5705 13.3333L24.8086 13.3333C24.2563 13.3333 23.8086 12.8856 23.8086 12.3333L23.8086 11C23.8086 10.4477 24.2563 10 24.8086 10L28.5705 10L28.5705 6C28.5705 5.44771 29.0182 5 29.5705 5L30.7451 5C31.2974 5 31.7451 5.44772 31.7451 6L31.7451 10L35.507 10C36.0593 10 36.507 10.4477 36.507 11L36.507 12.3333C36.507 12.8856 36.0593 13.3333 35.507 13.3333L31.7451 13.3333L31.7451 17.3333C31.7451 17.8856 31.2974 18.3333 30.7451 18.3333L29.5705 18.3333Z" fill="white"/>
<path d="M0.00103455 33.6653C0.616283 25.7108 6.76494 21.6666 14.2593 21.6666C21.8591 21.6666 28.103 25.4886 28.5681 33.6666C28.5866 33.9924 28.5681 35 27.3757 35C21.4938 35 12.7535 35 1.15477 35C0.756686 35 -0.0324788 34.0986 0.00103455 33.6653Z" fill="#6D36FB"/>
</svg>
