<svg width="96" height="81" viewBox="0 0 96 81" fill="none" xmlns="http://www.w3.org/2000/svg">
  <path d="M0.939453 5.56772C0.939453 2.97829 3.0386 0.87915 5.62802 0.87915H90.8708C93.4603 0.87915 95.5594 2.9783 95.5594 5.56772V75.8705C95.5594 78.46 93.4603 80.5591 90.8708 80.5591H5.62802C3.0386 80.5591 0.939453 78.46 0.939453 75.8705V5.56772Z" fill="#F4F0FF"/>
  <path fill-rule="evenodd" clip-rule="evenodd" d="M50.291 17.9802V18.6687C56.7969 20.7125 61.541 27.0741 61.541 34.6052V51.2302H63.791V55.9802H27.791V51.2302H30.041V34.6052C30.041 27.0741 34.7852 20.7125 41.291 18.6687V17.9802C41.291 15.3569 43.3057 13.2302 45.791 13.2302C48.2763 13.2302 50.291 15.3569 50.291 17.9802ZM34.541 51.2302H57.041V34.6052C57.041 28.0468 52.0042 22.7302 45.791 22.7302C39.5778 22.7302 34.541 28.0468 34.541 34.6052V51.2302ZM50.291 60.7302V58.3552H41.291V60.7302C41.291 63.3536 43.3057 65.4802 45.791 65.4802C48.2763 65.4802 50.291 63.3536 50.291 60.7302Z" fill="#6D36FB"/>
  </svg>
