<svg width="40" height="40" viewBox="0 0 40 40" fill="none" xmlns="http://www.w3.org/2000/svg">
  <path opacity="0.3" fill-rule="evenodd" clip-rule="evenodd" d="M34.0102 11.2268C34.6121 11.4943 35 12.0912 35 12.7498V27.3527C35 27.958 34.6718 28.5157 34.1427 28.8096L20.8094 36.217C20.306 36.4967 19.694 36.4967 19.1906 36.217L5.85726 28.8096C5.32815 28.5157 5 27.958 5 27.3527L5 12.7498C5 12.0912 5.38789 11.4943 5.98977 11.2268L19.3231 5.30087C19.754 5.10934 20.246 5.10934 20.6769 5.30087L34.0102 11.2268Z" fill="#1D88F3"/>
  <path fill-rule="evenodd" clip-rule="evenodd" d="M24.9446 7.04065L12.666 13.8621V21.5094L15.9993 23.1761V15.8234L28.7578 8.7354L24.9446 7.04065Z" fill="#1D88F3"/>
  </svg>
