<svg width="65" height="68" viewBox="0 0 65 68" fill="none" xmlns="http://www.w3.org/2000/svg">
<path opacity="0.3" fill-rule="evenodd" clip-rule="evenodd" d="M55.052 19.0856C56.0192 19.5404 56.6425 20.555 56.6425 21.6747V46.4996C56.6425 47.5286 56.1152 48.4767 55.265 48.9764L33.8388 61.569C33.0299 62.0444 32.0463 62.0444 31.2374 61.569L9.81118 48.9764C8.96092 48.4767 8.43359 47.5286 8.43359 46.4996L8.43359 21.6747C8.43359 20.555 9.05692 19.5404 10.0241 19.0856L31.4503 9.01153C32.1428 8.68593 32.9333 8.68593 33.6258 9.01153L55.052 19.0856Z" fill="#6D36FB"/>
<path fill-rule="evenodd" clip-rule="evenodd" d="M40.4852 11.9691L20.7539 23.5656V36.566L26.1105 39.3994V26.8998L46.6128 14.8502L40.4852 11.9691Z" fill="#6D36FB"/>
</svg>
