<svg width="39" height="40" viewBox="0 0 39 40" fill="none" xmlns="http://www.w3.org/2000/svg">
<path fill-rule="evenodd" clip-rule="evenodd" d="M14.2856 9.83337C14.2856 9.00495 14.9572 8.33337 15.7856 8.33337L31.8333 8.33337C32.6617 8.33337 33.3333 9.00495 33.3333 9.83337L33.3333 11.8334C33.3333 12.6618 32.6617 13.3334 31.8333 13.3334L15.7856 13.3334C14.9572 13.3334 14.2856 12.6618 14.2856 11.8334L14.2856 9.83337ZM14.2856 18.1667C14.2856 17.3383 14.9572 16.6667 15.7856 16.6667L31.8333 16.6667C32.6617 16.6667 33.3333 17.3383 33.3333 18.1667L33.3333 20.1667C33.3333 20.9951 32.6617 21.6667 31.8333 21.6667L15.7856 21.6667C14.9572 21.6667 14.2856 20.9951 14.2856 20.1667L14.2856 18.1667ZM15.7856 25C14.9572 25 14.2856 25.6716 14.2856 26.5L14.2856 28.5C14.2856 29.3285 14.9572 30 15.7856 30L31.8333 30C32.6617 30 33.3333 29.3285 33.3333 28.5L33.3333 26.5C33.3333 25.6716 32.6617 25 31.8333 25L15.7856 25Z" fill="white"/>
<path opacity="0.3" fill-rule="evenodd" clip-rule="evenodd" d="M8.73007 13.3334C10.045 13.3334 11.111 12.2141 11.111 10.8334C11.111 9.45266 10.045 8.33337 8.73007 8.33337C7.41511 8.33337 6.34912 9.45266 6.34912 10.8334C6.34912 12.2141 7.41511 13.3334 8.73007 13.3334ZM8.73007 21.6667C10.045 21.6667 11.111 20.5474 11.111 19.1667C11.111 17.786 10.045 16.6667 8.73007 16.6667C7.41511 16.6667 6.34912 17.786 6.34912 19.1667C6.34912 20.5474 7.41511 21.6667 8.73007 21.6667ZM11.111 27.5C11.111 28.8808 10.045 30 8.73007 30C7.41511 30 6.34912 28.8808 6.34912 27.5C6.34912 26.1193 7.41511 25 8.73007 25C10.045 25 11.111 26.1193 11.111 27.5Z" fill="white"/>
</svg>
