<svg width="39" height="40" viewBox="0 0 39 40" fill="none" xmlns="http://www.w3.org/2000/svg">
  <path opacity="0.3" d="M19.0475 7.60346L12.3304 16.067C11.7692 16.7741 10.7683 16.8697 10.0949 16.2804C9.4214 15.6911 9.33041 14.6402 9.89162 13.9331L17.8281 3.93307C18.4627 3.13348 19.6323 3.13348 20.2669 3.93307L28.2034 13.9331C28.7647 14.6402 28.6737 15.6911 28.0002 16.2804C27.3267 16.8697 26.3259 16.7741 25.7646 16.067L19.0475 7.60346Z" fill="white"/>
  <path fill-rule="evenodd" clip-rule="evenodd" d="M4.19101 15C3.67469 15 3.29583 15.5095 3.42106 16.0354L7.48556 33.1063C7.75054 34.2193 8.70288 35 9.79542 35L28.2997 35C29.3922 35 30.3445 34.2193 30.6095 33.1063L34.674 16.0354C34.7993 15.5095 34.4204 15 33.9041 15L4.19101 15ZM9.72724 21.4633C9.61379 21.0187 9.86505 20.5618 10.2884 20.4427L11.8217 20.0113C12.245 19.8922 12.6802 20.156 12.7937 20.6006L14.8478 28.6499C14.9612 29.0945 14.71 29.5514 14.2866 29.6706L12.7534 30.1019C12.33 30.221 11.8948 29.9572 11.7814 29.5127L9.72724 21.4633ZM17.4603 20.8333C17.4603 20.3731 17.8156 20 18.2539 20L19.8412 20C20.2795 20 20.6349 20.3731 20.6349 20.8333L20.6349 29.1667C20.6349 29.6269 20.2795 30 19.8412 30L18.2539 30C17.8156 30 17.4603 29.6269 17.4603 29.1667L17.4603 20.8333ZM26.2734 20.0114C25.8501 19.8923 25.4149 20.1561 25.3014 20.6007L23.2473 28.65C23.1339 29.0946 23.3851 29.5515 23.8085 29.6707L25.3417 30.102C25.7651 30.2212 26.2003 29.9573 26.3137 29.5128L28.3679 21.4634C28.4813 21.0188 28.23 20.5619 27.8067 20.4428L26.2734 20.0114Z" fill="#6D36FB"/>
  </svg>
