<svg width="41" height="40" viewBox="0 0 41 40" fill="none" xmlns="http://www.w3.org/2000/svg">
  <g opacity="0.01">
  <path d="M21 19.5C21 19.7761 20.7761 20 20.5 20C20.2239 20 20 19.7761 20 19.5C20 19.2239 20.2239 19 20.5 19C20.7761 19 21 19.2239 21 19.5Z" fill="white"/>
  </g>
  <path fill-rule="evenodd" clip-rule="evenodd" d="M6 6.5C6 5.67157 6.67157 5 7.5 5H34.5C35.3284 5 36 5.67157 36 6.5V33.5C36 34.3284 35.3284 35 34.5 35H7.5C6.67157 35 6 34.3284 6 33.5V6.5ZM9.33333 9.83333C9.33333 9.0049 10.0049 8.33333 10.8333 8.33333H31.1667C31.9951 8.33333 32.6667 9.00491 32.6667 9.83333V10.1667C32.6667 10.9951 31.9951 11.6667 31.1667 11.6667H10.8333C10.0049 11.6667 9.33333 10.9951 9.33333 10.1667V9.83333ZM30.3333 28.3333C29.781 28.3333 29.3333 28.781 29.3333 29.3333V30.6667C29.3333 31.219 29.781 31.6667 30.3333 31.6667H31.6667C32.219 31.6667 32.6667 31.219 32.6667 30.6667V29.3333C32.6667 28.781 32.219 28.3333 31.6667 28.3333H30.3333ZM22.6667 29.3333C22.6667 28.781 23.1144 28.3333 23.6667 28.3333H25C25.5523 28.3333 26 28.781 26 29.3333V30.6667C26 31.219 25.5523 31.6667 25 31.6667H23.6667C23.1144 31.6667 22.6667 31.219 22.6667 30.6667V29.3333ZM17 28.3333C16.4477 28.3333 16 28.781 16 29.3333V30.6667C16 31.219 16.4477 31.6667 17 31.6667H18.3333C18.8856 31.6667 19.3333 31.219 19.3333 30.6667V29.3333C19.3333 28.781 18.8856 28.3333 18.3333 28.3333H17ZM9.33333 29.3333C9.33333 28.781 9.78105 28.3333 10.3333 28.3333H11.6667C12.219 28.3333 12.6667 28.781 12.6667 29.3333V30.6667C12.6667 31.219 12.219 31.6667 11.6667 31.6667H10.3333C9.78105 31.6667 9.33333 31.219 9.33333 30.6667V29.3333ZM30.3333 21.6667C29.781 21.6667 29.3333 22.1144 29.3333 22.6667V24C29.3333 24.5523 29.781 25 30.3333 25H31.6667C32.219 25 32.6667 24.5523 32.6667 24V22.6667C32.6667 22.1144 32.219 21.6667 31.6667 21.6667H30.3333ZM22.6667 22.6667C22.6667 22.1144 23.1144 21.6667 23.6667 21.6667H25C25.5523 21.6667 26 22.1144 26 22.6667V24C26 24.5523 25.5523 25 25 25H23.6667C23.1144 25 22.6667 24.5523 22.6667 24V22.6667ZM17 21.6667C16.4477 21.6667 16 22.1144 16 22.6667V24C16 24.5523 16.4477 25 17 25H18.3333C18.8856 25 19.3333 24.5523 19.3333 24V22.6667C19.3333 22.1144 18.8856 21.6667 18.3333 21.6667H17ZM9.33333 22.6667C9.33333 22.1144 9.78105 21.6667 10.3333 21.6667H11.6667C12.219 21.6667 12.6667 22.1144 12.6667 22.6667V24C12.6667 24.5523 12.219 25 11.6667 25H10.3333C9.78105 25 9.33333 24.5523 9.33333 24V22.6667ZM30.3333 15C29.781 15 29.3333 15.4477 29.3333 16V17.3333C29.3333 17.8856 29.781 18.3333 30.3333 18.3333H31.6667C32.219 18.3333 32.6667 17.8856 32.6667 17.3333V16C32.6667 15.4477 32.219 15 31.6667 15H30.3333Z" fill="#D88100"/>
  <path opacity="0.3" d="M24.9993 15H23.666C23.1137 15 22.666 15.4477 22.666 16V17.3333C22.666 17.8856 23.1137 18.3333 23.666 18.3333H24.9993C25.5516 18.3333 25.9993 17.8856 25.9993 17.3333V16C25.9993 15.4477 25.5516 15 24.9993 15Z" fill="white"/>
  <path opacity="0.3" d="M18.3333 15H17C16.4477 15 16 15.4477 16 16V17.3333C16 17.8856 16.4477 18.3333 17 18.3333H18.3333C18.8856 18.3333 19.3333 17.8856 19.3333 17.3333V16C19.3333 15.4477 18.8856 15 18.3333 15Z" fill="white"/>
  <path opacity="0.3" d="M11.6673 15H10.334C9.7817 15 9.33398 15.4477 9.33398 16V17.3333C9.33398 17.8856 9.7817 18.3333 10.334 18.3333H11.6673C12.2196 18.3333 12.6673 17.8856 12.6673 17.3333V16C12.6673 15.4477 12.2196 15 11.6673 15Z" fill="white"/>
  </svg>
