<svg width="33" height="33" viewBox="0 0 33 33" fill="none" xmlns="http://www.w3.org/2000/svg">
  <path d="M29.9584 16.6251C29.9584 14.8741 29.6135 13.1404 28.9434 11.5225C28.2733 9.90503 27.2912 8.43498 26.0531 7.19702C24.815 5.95874 23.3452 4.97664 21.7275 4.30672C20.1098 3.63647 18.376 3.29175 16.625 3.29175V5.95841C18.0258 5.95841 19.4128 6.23446 20.707 6.77026C22.0011 7.3064 23.177 8.0922 24.1675 9.08276C25.158 10.073 25.9437 11.2491 26.4797 12.5431C27.0158 13.8373 27.2917 15.2244 27.2917 16.6251H29.9584Z" fill="#6D36FB"/>
  <path d="M3.29169 13.9584V7.29175C3.29169 6.55542 3.88865 5.95841 4.62502 5.95841H11.2917C12.0281 5.95841 12.625 6.55542 12.625 7.29175V12.6251C12.625 13.3614 12.0281 13.9584 11.2917 13.9584H8.62502C8.62502 19.8494 13.4007 24.6251 19.2917 24.6251V21.9584C19.2917 21.2221 19.8887 20.6251 20.625 20.6251H25.9584C26.6947 20.6251 27.2917 21.2221 27.2917 21.9584V28.6251C27.2917 29.3614 26.6947 29.9584 25.9584 29.9584H19.2917C10.4551 29.9584 3.29169 22.795 3.29169 13.9584Z" fill="#6D36FB"/>
  <path d="M24.0161 13.5636C24.4181 14.5343 24.625 15.5746 24.625 16.6251H22.225C22.225 15.8897 22.0802 15.1615 21.7987 14.4822C21.5173 13.8025 21.1048 13.1853 20.5848 12.6654C20.0648 12.1453 19.4475 11.7328 18.768 11.4513C18.0886 11.17 17.3604 11.0251 16.625 11.0251V8.62508C17.6756 8.62508 18.7159 8.83211 19.6865 9.23413C20.6571 9.63615 21.539 10.2253 22.2819 10.9682C23.0248 11.711 23.614 12.5929 24.0161 13.5636Z" fill="#6D36FB"/>
  </svg>
