<svg width="40" height="41" viewBox="0 0 40 41" fill="none" xmlns="http://www.w3.org/2000/svg">
  <g opacity="0.01">
  <rect width="1" height="1" rx="0.5" transform="matrix(1 0 0 -1 20 20.5)" fill="white"/>
  </g>
  <path opacity="0.3" fill-rule="evenodd" clip-rule="evenodd" d="M28.3214 11.1842L29.3434 6.80422C29.5511 5.91419 30.3446 5.28455 31.2585 5.28455H34.6999C35.786 5.28455 36.6664 6.16499 36.6664 7.25108C36.6664 8.33716 35.786 9.21761 34.6999 9.21761H32.819L30.2408 20.24L28.9671 27.8819C28.8754 28.4324 28.3509 28.8012 27.8019 28.7014L7.78029 25.0611C7.40568 24.993 7.10225 24.7181 6.99765 24.352L3.59963 12.4589C3.41711 11.8201 3.89677 11.1842 4.56115 11.1842H28.3214Z" fill="#FF2E2E"/>
  <path fill-rule="evenodd" clip-rule="evenodd" d="M13.334 33C13.334 34.3807 12.2147 35.5 10.834 35.5C9.45327 35.5 8.33398 34.3807 8.33398 33C8.33398 31.6193 9.45327 30.5 10.834 30.5C12.2147 30.5 13.334 31.6193 13.334 33ZM28.334 33C28.334 34.3807 27.2147 35.5 25.834 35.5C24.4533 35.5 23.334 34.3807 23.334 33C23.334 31.6193 24.4533 30.5 25.834 30.5C27.2147 30.5 28.334 31.6193 28.334 33Z" fill="#FF2E2E"/>
  </svg>
