<svg width="59" height="50" viewBox="0 0 59 50" fill="none" xmlns="http://www.w3.org/2000/svg">
<path d="M0.259766 4.59768C0.259766 2.36777 2.06747 0.560059 4.29739 0.560059H54.8665C57.0964 0.560059 58.9041 2.36776 58.9041 4.59768V45.9071C58.9041 48.137 57.0964 49.9447 54.8665 49.9447H4.29739C2.06747 49.9447 0.259766 48.137 0.259766 45.9071V4.59768Z" fill="#F4F0FF"/>
<path fill-rule="evenodd" clip-rule="evenodd" d="M37.6276 17.9922L38.5021 14.0568C38.6798 13.2571 39.3588 12.6914 40.1409 12.6914H43.0857C44.0151 12.6914 44.7685 13.4825 44.7685 14.4583C44.7685 15.4342 44.0151 16.2252 43.0857 16.2252H41.4762L39.272 26.12L38.1468 33.2087C38.0872 33.5839 37.7291 33.8354 37.356 33.7642L19.9403 30.4394C19.6877 30.3911 19.4847 30.2032 19.4171 29.955L16.3931 18.8418C16.2767 18.4138 16.5989 17.9922 17.0425 17.9922H37.6276Z" fill="#6D36FB"/>
<path fill-rule="evenodd" clip-rule="evenodd" d="M24.8 37.5935C24.8 38.8341 23.8422 39.8397 22.6607 39.8397C21.4793 39.8397 20.5215 38.8341 20.5215 37.5935C20.5215 36.353 21.4793 35.3473 22.6607 35.3473C23.8422 35.3473 24.8 36.353 24.8 37.5935ZM37.6358 37.5935C37.6358 38.8341 36.678 39.8397 35.4965 39.8397C34.315 39.8397 33.3572 38.8341 33.3572 37.5935C33.3572 36.353 34.315 35.3473 35.4965 35.3473C36.678 35.3473 37.6358 36.353 37.6358 37.5935Z" fill="#A786FD"/>
</svg>
