<svg width="40" height="40" viewBox="0 0 40 40" fill="none" xmlns="http://www.w3.org/2000/svg">
<path opacity="0.3" fill-rule="evenodd" clip-rule="evenodd" d="M28.3214 10.6842L29.3434 6.30421C29.5511 5.41418 30.3446 4.78453 31.2585 4.78453H34.6999C35.786 4.78453 36.6664 5.66498 36.6664 6.75106C36.6664 7.83714 35.786 8.71759 34.6999 8.71759H32.819L30.2408 19.74L28.9671 27.3819C28.8754 27.9324 28.3509 28.3012 27.8019 28.2014L7.78029 24.5611C7.40568 24.493 7.10225 24.2181 6.99765 23.8519L3.59963 11.9589C3.41711 11.3201 3.89677 10.6842 4.56115 10.6842H28.3214Z" fill="#6D36FB"/>
<path fill-rule="evenodd" clip-rule="evenodd" d="M13.334 32.5C13.334 33.8807 12.2147 35 10.834 35C9.45327 35 8.33398 33.8807 8.33398 32.5C8.33398 31.1193 9.45327 30 10.834 30C12.2147 30 13.334 31.1193 13.334 32.5ZM28.334 32.5C28.334 33.8807 27.2147 35 25.834 35C24.4533 35 23.334 33.8807 23.334 32.5C23.334 31.1193 24.4533 30 25.834 30C27.2147 30 28.334 31.1193 28.334 32.5Z" fill="#6D36FB"/>
</svg>
