<svg width="39" height="40" viewBox="0 0 39 40" fill="none" xmlns="http://www.w3.org/2000/svg">
  <path d="M22.3095 6.66699H20.5476C19.7192 6.66699 19.0476 7.33857 19.0476 8.16699V26.8337C19.0476 27.6621 19.7192 28.3337 20.5476 28.3337H22.3095C23.1379 28.3337 23.8095 27.6621 23.8095 26.8337V8.16699C23.8095 7.33857 23.1379 6.66699 22.3095 6.66699Z" fill="white"/>
  <path d="M14.373 15H12.6111C11.7827 15 11.1111 15.6716 11.1111 16.5V26.8333C11.1111 27.6617 11.7827 28.3333 12.6111 28.3333H14.373C15.2014 28.3333 15.873 27.6617 15.873 26.8333V16.5C15.873 15.6716 15.2014 15 14.373 15Z" fill="white"/>
  <path d="M7.93657 31.6667H31.7461C32.6227 31.6667 33.3334 32.4129 33.3334 33.3333C33.3334 34.2538 32.6227 35 31.7461 35H6.34926C5.47262 35 4.76196 34.2538 4.76196 33.3333V6.66667C4.76196 5.74619 5.47262 5 6.34926 5C7.22591 5 7.93657 5.74619 7.93657 6.66667V31.6667Z" fill="#6D36FB"/>
  <path d="M30.246 18.3335H28.4841C27.6557 18.3335 26.9841 19.0051 26.9841 19.8335V26.8335C26.9841 27.6619 27.6557 28.3335 28.4841 28.3335H30.246C31.0745 28.3335 31.746 27.6619 31.746 26.8335V19.8335C31.746 19.0051 31.0745 18.3335 30.246 18.3335Z" fill="white"/>
  </svg>
