<svg width="62" height="51" viewBox="0 0 62 51" fill="none" xmlns="http://www.w3.org/2000/svg">
  <path d="M0.154297 5.84951C0.154297 2.99727 2.4665 0.685059 5.31874 0.685059H56.4887C59.3409 0.685059 61.6531 2.99726 61.6531 5.8495V45.1137C61.6531 47.9659 59.3409 50.2781 56.4887 50.2781H5.31874C2.4665 50.2781 0.154297 47.9659 0.154297 45.1137V5.84951Z" fill="#F4F0FF"/>
  <path d="M21.0511 33.8254H41.781C42.5442 33.8254 43.163 34.6149 43.163 35.5888C43.163 36.5628 42.5442 37.3523 41.781 37.3523H19.6691C18.9058 37.3523 18.2871 36.5628 18.2871 35.5888V7.37322C18.2871 6.39928 18.9058 5.60974 19.6691 5.60974C20.4324 5.60974 21.0511 6.39928 21.0511 7.37322V33.8254Z" fill="#6D36FB"/>
  <path opacity="0.3" d="M26.2047 26.2142C25.6826 26.9248 24.8081 26.9608 24.2512 26.2947C23.6944 25.6285 23.6662 24.5125 24.1882 23.802L29.3707 16.7481C29.8756 16.0609 30.7145 16.0014 31.276 16.6128L35.3663 21.0667L40.6957 12.4528C41.1686 11.6884 42.0376 11.5579 42.6367 12.1614C43.2358 12.7649 43.338 13.8738 42.8651 14.6383L36.6461 24.6901C36.1604 25.4752 35.2606 25.5881 34.6643 24.9388L30.4851 20.3881L26.2047 26.2142Z" fill="#6D36FB"/>
  </svg>
