<svg width="39" height="40" viewBox="0 0 39 40" fill="none" xmlns="http://www.w3.org/2000/svg">
<path fill-rule="evenodd" clip-rule="evenodd" d="M3.17383 8C3.17383 6.34315 4.51697 5 6.17383 5L31.9199 5C33.5767 5 34.9199 6.34315 34.9199 8L34.9199 25.0163L34.9594 25L34.9594 34.1667C34.9594 35.0694 33.8578 35.51 33.2353 34.8563L28.6102 30L6.17383 30C4.51697 30 3.17383 28.6569 3.17383 27L3.17383 8ZM10.2298 15.2799C9.50044 15.7905 9.30333 16.8253 9.78961 17.5912C12.1858 21.3652 15.3098 23.3333 19.0468 23.3333C22.7839 23.3333 25.9078 21.3652 28.3041 17.5912C28.7903 16.8253 28.5932 15.7905 27.8638 15.2799C27.1344 14.7693 26.1489 14.9763 25.6626 15.7422C23.8261 18.6348 21.659 20 19.0468 20C16.4347 20 14.2676 18.6348 12.431 15.7422C11.9448 14.9763 10.9593 14.7693 10.2298 15.2799Z" fill="white"/>
</svg>
