<svg width="40" height="40" viewBox="0 0 40 40" fill="none" xmlns="http://www.w3.org/2000/svg">
<path fill-rule="evenodd" clip-rule="evenodd" d="M3.33398 8C3.33398 6.34315 4.67713 5 6.33398 5H33.6673C35.3242 5 36.6673 6.34315 36.6673 8V25.0163L36.7089 25V34.2525C36.7089 35.1434 35.6317 35.5895 35.0017 34.9596L30.0422 30H6.33398C4.67713 30 3.33398 28.6569 3.33398 27V8ZM10.7428 15.2799C9.97692 15.7905 9.76997 16.8253 10.2806 17.5912C12.7966 21.3652 16.0768 23.3333 20.0006 23.3333C23.9245 23.3333 27.2047 21.3652 29.7207 17.5912C30.2313 16.8253 30.0244 15.7905 29.2585 15.2799C28.4926 14.7693 27.4578 14.9763 26.9472 15.7422C25.0188 18.6348 22.7434 20 20.0006 20C17.2579 20 14.9824 18.6348 13.0541 15.7422C12.5435 14.9763 11.5087 14.7693 10.7428 15.2799Z" fill="#D88100"/>
</svg>
