<svg width="29" height="29" viewBox="0 0 29 29" fill="none" xmlns="http://www.w3.org/2000/svg">
<path d="M12.3489 19.6686L7.23379 14.5534L8.93883 12.8484L12.3489 16.2585L19.1691 9.43832L20.8741 11.1434L12.3489 19.6686Z" fill="#6D36FB"/>
<path fill-rule="evenodd" clip-rule="evenodd" d="M1.20557 14.4678C1.20557 7.14333 7.14321 1.20569 14.4677 1.20569C21.7921 1.20569 27.7298 7.14333 27.7298 14.4678C27.7298 21.7922 21.7921 27.7299 14.4677 27.7299C7.14321 27.7299 1.20557 21.7922 1.20557 14.4678ZM14.4677 25.3186C8.47493 25.3186 3.61686 20.4605 3.61686 14.4678C3.61686 8.47505 8.47493 3.61698 14.4677 3.61698C20.4604 3.61698 25.3185 8.47505 25.3185 14.4678C25.3185 20.4605 20.4604 25.3186 14.4677 25.3186Z" fill="#6D36FB"/>
</svg>
