<svg width="40" height="42" viewBox="0 0 40 42" fill="none" xmlns="http://www.w3.org/2000/svg">
<g opacity="0.01">
<path d="M21 21C21 21.2761 20.7761 21.5 20.5 21.5C20.2239 21.5 20 21.2761 20 21C20 20.7239 20.2239 20.5 20.5 20.5C20.7761 20.5 21 20.7239 21 21Z" fill="white"/>
</g>
<path opacity="0.3" d="M6.66797 7.5C6.66797 6.39543 7.5634 5.5 8.66797 5.5H31.3347C32.4392 5.5 33.3346 6.39543 33.3346 7.5V36.8333C33.3346 37.9379 32.4392 38.8333 31.3347 38.8333H8.66796C7.56339 38.8333 6.66797 37.9379 6.66797 36.8333V7.5Z" fill="#DF32B3"/>
<path fill-rule="evenodd" clip-rule="evenodd" d="M18.3333 3.83335H15.5C15.2239 3.83335 15 4.05721 15 4.33335V6.66669C15 6.94283 15.2239 7.16669 15.5 7.16669H24.5C24.7761 7.16669 25 6.94283 25 6.66669V4.33335C25 4.05721 24.7761 3.83335 24.5 3.83335H21.6667C21.6667 2.91288 20.9205 2.16669 20 2.16669C19.0795 2.16669 18.3333 2.91288 18.3333 3.83335Z" fill="#6D36FB"/>
<path opacity="0.3" d="M26.6641 15.5H18.3307C17.4103 15.5 16.6641 16.2462 16.6641 17.1667C16.6641 18.0871 17.4103 18.8333 18.3307 18.8333H26.6641C27.5846 18.8333 28.3308 18.0871 28.3308 17.1667C28.3308 16.2462 27.5846 15.5 26.6641 15.5Z" fill="#6D36FB"/>
<path opacity="0.3" d="M14.9974 17.1667C14.9974 16.2462 14.2512 15.5 13.3307 15.5C12.4103 15.5 11.6641 16.2462 11.6641 17.1667C11.6641 18.0871 12.4103 18.8333 13.3307 18.8333C14.2512 18.8333 14.9974 18.0871 14.9974 17.1667Z" fill="#6D36FB"/>
<path opacity="0.3" d="M14.9974 23.8334C14.9974 22.9129 14.2512 22.1667 13.3307 22.1667C12.4103 22.1667 11.6641 22.9129 11.6641 23.8334C11.6641 24.7538 12.4103 25.5 13.3307 25.5C14.2512 25.5 14.9974 24.7538 14.9974 23.8334Z" fill="#6D36FB"/>
<path opacity="0.3" d="M26.6641 22.1667H18.3307C17.4103 22.1667 16.6641 22.9129 16.6641 23.8334C16.6641 24.7538 17.4103 25.5 18.3307 25.5H26.6641C27.5846 25.5 28.3308 24.7538 28.3308 23.8334C28.3308 22.9129 27.5846 22.1667 26.6641 22.1667Z" fill="#6D36FB"/>
<path opacity="0.3" d="M14.9974 30.5C14.9974 29.5795 14.2512 28.8333 13.3307 28.8333C12.4103 28.8333 11.6641 29.5795 11.6641 30.5C11.6641 31.4204 12.4103 32.1666 13.3307 32.1666C14.2512 32.1666 14.9974 31.4204 14.9974 30.5Z" fill="#6D36FB"/>
<path opacity="0.3" d="M26.6641 28.8333H18.3307C17.4103 28.8333 16.6641 29.5795 16.6641 30.5C16.6641 31.4204 17.4103 32.1666 18.3307 32.1666H26.6641C27.5846 32.1666 28.3308 31.4204 28.3308 30.5C28.3308 29.5795 27.5846 28.8333 26.6641 28.8333Z" fill="#6D36FB"/>
</svg>