<svg width="40" height="42" viewBox="0 0 40 42" fill="none" xmlns="http://www.w3.org/2000/svg">
  <g opacity="0.01">
  <rect width="1" height="1" rx="0.5" transform="matrix(1 0 0 -1 20 21.5)" fill="white"/>
  </g>
  <path fill-rule="evenodd" clip-rule="evenodd" d="M17.4643 13.4617C17.4843 13.2012 17.7015 13 17.9628 13H18.714C18.9708 13 19.1859 13.1946 19.2115 13.4502L19.9998 21.3333L25.5812 24.5227C25.737 24.6117 25.8331 24.7774 25.8331 24.9568V25.6787C25.8331 26.0084 25.5196 26.2478 25.2016 26.1611L17.0651 23.9421C16.8337 23.879 16.6798 23.6605 16.6981 23.4213L17.4643 13.4617Z" fill="#A61381"/>
  <path opacity="0.3" fill-rule="evenodd" clip-rule="evenodd" d="M9.90834 2.35666C9.64423 2.04191 9.13429 2.16238 9.03896 2.56204L6.90053 11.5272C6.82285 11.8528 7.08092 12.1613 7.41517 12.1424L16.6377 11.6198C17.0486 11.5965 17.257 11.1145 16.9924 10.7992L14.5801 7.92428C16.0363 7.42663 17.5805 7.1667 19.166 7.1667C26.99 7.1667 33.3327 13.5093 33.3327 21.3334C33.3327 29.1574 26.99 35.5 19.166 35.5C11.342 35.5 4.99935 29.1574 4.99935 21.3334C4.99935 20.0199 5.17722 18.7335 5.52403 17.497L2.31457 16.5968C1.89201 18.1033 1.66602 19.6919 1.66602 21.3334C1.66602 30.9983 9.50103 38.8334 19.166 38.8334C28.831 38.8334 36.666 30.9983 36.666 21.3334C36.666 11.6684 28.831 3.83336 19.166 3.83336C16.7348 3.83336 14.4193 4.32915 12.3153 5.22513L9.90834 2.35666Z" fill="#DF32B3"/>
  </svg>
