<svg width="24" height="24" viewBox="0 0 24 24" fill="none" xmlns="http://www.w3.org/2000/svg">
  <path d="M16.5001 4.5C14.8906 4.5 13.0084 6.32463 12.0001 7.5C10.9919 6.32463 9.10962 4.5 7.50012 4.5C4.65112 4.5 3.00012 6.72218 3.00012 9.55041C3.00012 14.25 12.0001 19.5 12.0001 19.5C12.0001 19.5 21.0001 14.25 21.0001 9.75C21.0001 6.92177 19.3491 4.5 16.5001 4.5Z" fill="#6D36FB"/>
  <path opacity="0.3" fill-rule="evenodd" clip-rule="evenodd" d="M12.0001 19.5C12.0001 19.5 3.00012 14.25 3.00012 9.55041C3.00012 6.72218 4.65112 4.5 7.50012 4.5C8.51953 4.5 9.64835 5.23196 10.5952 6.06732C11.1433 6.55087 11.6305 7.06907 12.0001 7.5C12.3698 7.06907 12.8569 6.55087 13.405 6.06732C14.3519 5.23196 15.4807 4.5 16.5001 4.5C19.3491 4.5 21.0001 6.92177 21.0001 9.75C21.0001 14.25 12.0001 19.5 12.0001 19.5ZM12.0001 19.5C10.9924 21.2276 10.992 21.2273 10.9916 21.2271L10.9881 21.2251L10.9805 21.2206L10.9558 21.206C10.935 21.1937 10.906 21.1765 10.8691 21.1543C10.7954 21.11 10.6905 21.0463 10.5587 20.9646C10.2955 20.8012 9.92401 20.565 9.48023 20.2675C8.59634 19.675 7.40778 18.8272 6.20978 17.8156C5.02167 16.8124 3.76609 15.5995 2.79234 14.2687C1.84092 12.9685 1.00012 11.341 1.00012 9.55041C1.00012 7.76229 1.52213 6.01214 2.65469 4.67307C3.81801 3.29762 5.5099 2.5 7.50012 2.5C8.98175 2.5 10.2979 3.29574 11.1817 3.9638C11.467 4.17951 11.7411 4.40822 12.0001 4.64028C12.2591 4.40822 12.5332 4.17951 12.8186 3.9638C13.7023 3.29574 15.0185 2.5 16.5001 2.5C18.5514 2.5 20.2431 3.3967 21.3789 4.81334C22.4816 6.18875 23.0001 7.9667 23.0001 9.75C23.0001 11.512 22.1397 13.1107 21.1939 14.3719C20.2203 15.67 18.9661 16.8609 17.7805 17.8489C16.5846 18.8456 15.398 19.6853 14.5158 20.2735C14.0728 20.5688 13.7021 20.8036 13.4396 20.9662C13.3082 21.0475 13.2036 21.1109 13.1302 21.1549C13.0935 21.1769 13.0646 21.1941 13.044 21.2063L13.0195 21.2207L13.012 21.2251L13.0086 21.2271C13.0082 21.2274 13.0079 21.2276 12.0001 19.5ZM12.0001 19.5L13.0079 21.2276L12.0001 21.8154L10.9924 21.2276L12.0001 19.5Z" fill="#6D36FB"/>
  </svg>
