<svg width="40" height="40" viewBox="0 0 40 40" fill="none" xmlns="http://www.w3.org/2000/svg">
  <g opacity="0.01">
  <path d="M21 19.5C21 19.7761 20.7761 20 20.5 20C20.2239 20 20 19.7761 20 19.5C20 19.2239 20.2239 19 20.5 19C20.7761 19 21 19.2239 21 19.5Z" fill="white"/>
  </g>
  <path opacity="0.3" d="M21.0247 4.16675H19.6914C19.1391 4.16675 18.6914 4.61446 18.6914 5.16675V9.83342C18.6914 10.3857 19.1391 10.8334 19.6914 10.8334H21.0247C21.577 10.8334 22.0247 10.3857 22.0247 9.83342V5.16675C22.0247 4.61446 21.577 4.16675 21.0247 4.16675Z" fill="#6D36FB"/>
  <path opacity="0.3" d="M21.0247 27.5H19.6914C19.1391 27.5 18.6914 27.9477 18.6914 28.5V34.8333C18.6914 35.3856 19.1391 35.8333 19.6914 35.8333H21.0247C21.577 35.8333 22.0247 35.3856 22.0247 34.8333V28.5C22.0247 27.9477 21.577 27.5 21.0247 27.5Z" fill="#6D36FB"/>
  <path fill-rule="evenodd" clip-rule="evenodd" d="M25.346 14.24C24.8816 13.6489 24.2746 13.1792 23.5252 12.8308C22.7757 12.4825 22.0527 12.3083 21.356 12.3083C20.9971 12.3083 20.633 12.34 20.2635 12.4033C19.8941 12.4667 19.5616 12.5881 19.266 12.7675C18.9705 12.947 18.7224 13.1792 18.5218 13.4642C18.3213 13.7492 18.221 14.1133 18.221 14.5567C18.221 14.9367 18.3002 15.2533 18.4585 15.5067C18.6168 15.76 18.8491 15.9817 19.1552 16.1717C19.4613 16.3617 19.8255 16.5358 20.2477 16.6942C20.6699 16.8525 21.1449 17.0161 21.6727 17.185C22.4327 17.4383 23.2243 17.7181 24.0477 18.0242C24.871 18.3303 25.6205 18.7367 26.296 19.2433C26.9716 19.75 27.531 20.3781 27.9743 21.1275C28.4177 21.877 28.6393 22.8111 28.6393 23.93C28.6393 25.2178 28.4018 26.3314 27.9268 27.2708C27.4518 28.2103 26.8132 28.9861 26.011 29.5983C25.2088 30.2106 24.2905 30.6645 23.256 30.96C22.2216 31.2556 21.1555 31.4033 20.0577 31.4033C18.4532 31.4033 16.9016 31.1236 15.4027 30.5642C13.9038 30.0047 12.6582 29.2078 11.666 28.1733L15.2127 24.5633C15.7616 25.2389 16.4846 25.8036 17.3818 26.2575C18.2791 26.7114 19.171 26.9383 20.0577 26.9383C20.4588 26.9383 20.8493 26.8961 21.2293 26.8117C21.6093 26.7272 21.9418 26.59 22.2268 26.4C22.5118 26.21 22.7388 25.9567 22.9077 25.64C23.0766 25.3233 23.161 24.9433 23.161 24.5C23.161 24.0778 23.0555 23.7189 22.8443 23.4233C22.6332 23.1278 22.3324 22.8586 21.9418 22.6158C21.5513 22.3731 21.0657 22.1514 20.4852 21.9508C19.9046 21.7503 19.2449 21.5339 18.506 21.3017C17.7882 21.0695 17.0863 20.795 16.4002 20.4783C15.7141 20.1617 15.1019 19.7553 14.5635 19.2592C14.0252 18.7631 13.5924 18.1614 13.2652 17.4542C12.938 16.747 12.7743 15.8867 12.7743 14.8733C12.7743 13.6278 13.0277 12.5617 13.5343 11.675C14.041 10.7883 14.706 10.06 15.5293 9.49005C16.3527 8.92005 17.2816 8.50311 18.316 8.23922C19.3505 7.97533 20.3955 7.84338 21.451 7.84338C22.7177 7.84338 24.0107 8.0756 25.3302 8.54005C26.6496 9.0045 27.8055 9.6906 28.7977 10.5983L25.346 14.24Z" fill="#6D36FB"/>
  </svg>
