<svg width="96" height="81" viewBox="0 0 96 81" fill="none" xmlns="http://www.w3.org/2000/svg">
<path d="M0.939941 6.87989C0.939941 3.56618 3.62623 0.879883 6.93994 0.879883H89.5599C92.8736 0.879883 95.5599 3.56617 95.5599 6.87988V74.5598C95.5599 77.8735 92.8736 80.5598 89.5599 80.5598H6.93995C3.62624 80.5598 0.939941 77.8735 0.939941 74.5598V6.87989Z" fill="#F4F0FF"/>
<rect opacity="0.3" x="44.7759" y="16.0835" width="5.66667" height="11.3333" rx="1" fill="#6D36FB"/>
<rect opacity="0.3" x="44.7759" y="55.75" width="5.66667" height="14.1667" rx="1" fill="#6D36FB"/>
<path fill-rule="evenodd" clip-rule="evenodd" d="M56.0894 33.2083C55.2998 32.2034 54.268 31.4049 52.994 30.8127C51.7199 30.2206 50.4907 29.9245 49.3064 29.9245C48.6963 29.9245 48.0772 29.9783 47.4491 30.086C46.8211 30.1937 46.2558 30.4 45.7534 30.7051C45.2509 31.0101 44.8292 31.4049 44.4883 31.8894C44.1473 32.3739 43.9769 32.993 43.9769 33.7467C43.9769 34.3927 44.1115 34.931 44.3806 35.3617C44.6498 35.7923 45.0446 36.1692 45.565 36.4922C46.0853 36.8152 46.7044 37.1112 47.4222 37.3804C48.14 37.6496 48.9475 37.9277 49.8447 38.2148C51.1367 38.6455 52.4825 39.121 53.8822 39.6414C55.2819 40.1618 56.5559 40.8526 57.7044 41.714C58.8528 42.5753 59.8039 43.643 60.5575 44.9171C61.3112 46.1911 61.688 47.7792 61.688 49.6813C61.688 51.8706 61.2843 53.7637 60.4768 55.3607C59.6693 56.9578 58.5837 58.2767 57.2199 59.3175C55.8561 60.3583 54.2949 61.1299 52.5364 61.6323C50.7778 62.1348 48.9654 62.386 47.0992 62.386C44.3716 62.386 41.7338 61.9105 39.1857 60.9594C36.6376 60.0083 34.5202 58.6536 32.8334 56.895L38.8627 50.758C39.7958 51.9064 41.025 52.8665 42.5503 53.6381C44.0756 54.4097 45.5919 54.7955 47.0992 54.7955C47.7811 54.7955 48.445 54.7237 49.091 54.5802C49.737 54.4366 50.3023 54.2033 50.7868 53.8803C51.2713 53.5573 51.6571 53.1267 51.9442 52.5883C52.2313 52.05 52.3749 51.404 52.3749 50.6503C52.3749 49.9325 52.1954 49.3224 51.8365 48.82C51.4776 48.3175 50.9662 47.86 50.3023 47.4472C49.6383 47.0345 48.8129 46.6577 47.826 46.3167C46.839 45.9758 45.7175 45.6079 44.4614 45.2132C43.2411 44.8184 42.0479 44.3518 40.8815 43.8135C39.7151 43.2751 38.6743 42.5843 37.7591 41.7409C36.844 40.8975 36.1082 39.8747 35.552 38.6724C34.9957 37.4701 34.7175 36.0077 34.7175 34.285C34.7175 32.1675 35.1482 30.3552 36.0095 28.8478C36.8709 27.3405 38.0014 26.1023 39.401 25.1333C40.8007 24.1643 42.3798 23.4555 44.1384 23.0069C45.8969 22.5583 47.6734 22.334 49.4679 22.334C51.6212 22.334 53.8194 22.7288 56.0625 23.5183C58.3055 24.3079 60.2704 25.4743 61.9572 27.0175L56.0894 33.2083Z" fill="#6D36FB"/>
</svg>
