<svg width="40" height="41" viewBox="0 0 40 41" fill="none" xmlns="http://www.w3.org/2000/svg">
<path opacity="0.3" fill-rule="evenodd" clip-rule="evenodd" d="M8.63667 29.5069C8.24614 29.8974 8.24614 30.5306 8.63667 30.9211L9.57948 31.8639C9.97 32.2544 10.6032 32.2544 10.9937 31.8639L20.0006 22.857L30.7927 33.649C31.1832 34.0395 31.8163 34.0396 32.2069 33.649L33.1497 32.7062C33.5402 32.3157 33.5402 31.6825 33.1497 31.292L22.3576 20.5L33.1497 9.7079C33.5402 9.31738 33.5402 8.68421 33.1497 8.29369L32.2069 7.35088C31.8164 6.96035 31.1832 6.96035 30.7927 7.35088L20.0006 18.1429L10.9937 9.13599C10.6031 8.74546 9.96998 8.74546 9.57945 9.13599L8.63664 10.0788C8.24612 10.4693 8.24612 11.1025 8.63664 11.493L17.6436 20.5L8.63667 29.5069Z" fill="#FF2E2E"/>
<path fill-rule="evenodd" clip-rule="evenodd" d="M29.9993 10.5H24.9993C24.9993 10.5 23.3327 10.214 23.3327 8.83329C23.3327 7.45258 24.9993 7.16663 24.9993 7.16663H33.3327V15.5C33.3327 15.5 33.3327 17.1666 31.666 17.1666C29.9993 17.1666 29.9993 15.5 29.9993 15.5V10.5ZM14.9993 30.5H9.99935V25.5C9.99935 25.5 9.99935 23.8333 8.33268 23.8333C6.66602 23.8333 6.66602 25.5 6.66602 25.5V33.8333H14.9993C14.9993 33.8333 16.666 33.5473 16.666 32.1666C16.666 30.7859 14.9993 30.5 14.9993 30.5ZM29.9993 25.5V30.5H24.9993C24.9993 30.5 23.3327 30.5 23.3327 32.1666C23.3327 33.8333 24.9993 33.8333 24.9993 33.8333H33.3327V25.5C33.3327 25.5 33.0467 23.8333 31.666 23.8333C30.2853 23.8333 29.9993 25.5 29.9993 25.5ZM9.99935 15.5V10.5H14.9993C14.9993 10.5 16.666 10.5 16.666 8.83329C16.666 7.16663 14.9993 7.16663 14.9993 7.16663H6.66602V15.5C6.66602 15.5 6.95197 17.1666 8.33268 17.1666C9.71339 17.1666 9.99935 15.5 9.99935 15.5Z" fill="#FF2E2E"/>
</svg>
