<svg width="39" height="40" viewBox="0 0 39 40" fill="none" xmlns="http://www.w3.org/2000/svg">
  <path opacity="0.3" fill-rule="evenodd" clip-rule="evenodd" d="M9.52372 5L28.5713 5L31.7459 10.8333L6.34912 10.8333L9.52372 5Z" fill="#6D36FB"/>
  <path fill-rule="evenodd" clip-rule="evenodd" d="M8.34912 8.33337C7.24455 8.33337 6.34912 9.2288 6.34912 10.3334L6.34912 33C6.34912 34.1046 7.24455 35 8.34912 35L29.7459 35C30.8505 35 31.7459 34.1046 31.7459 33L31.7459 10.3334C31.7459 9.2288 30.8505 8.33337 29.7459 8.33337L8.34912 8.33337ZM13.6983 15C13.146 15 12.6983 15.4478 12.6983 16L12.6983 17.3334C12.6983 17.8857 13.146 18.3334 13.6983 18.3334L24.3967 18.3334C24.949 18.3334 25.3967 17.8857 25.3967 17.3334L25.3967 16C25.3967 15.4478 24.949 15 24.3967 15L13.6983 15Z" fill="white"/>
  </svg>
