<svg width="147" height="20" viewBox="0 0 147 20" fill="none" xmlns="http://www.w3.org/2000/svg">
  <path d="M19.3333 5L11.4167 12.9167L7.25 8.75L1 15" stroke="#399929" stroke-width="2" stroke-linecap="round" stroke-linejoin="round"/>
  <path d="M14.332 5H19.332V10" stroke="#399929" stroke-width="2" stroke-linecap="round" stroke-linejoin="round"/>
  <path d="M34.3733 5.116C35.0079 5.116 35.5679 5.214 36.0533 5.41C36.5479 5.59667 37.0146 5.87667 37.4533 6.25L36.4593 7.286C36.1139 7.01533 35.7873 6.81933 35.4793 6.698C35.1806 6.57667 34.8306 6.516 34.4293 6.516C33.6826 6.516 33.0713 6.81467 32.5953 7.412C32.1193 8.00933 31.8813 8.924 31.8813 10.156C31.8813 11.444 32.0679 12.3727 32.4413 12.942C32.8239 13.5113 33.4026 13.796 34.1773 13.796C34.7653 13.796 35.2786 13.67 35.7173 13.418V10.898H34.2613L34.0653 9.526H37.5373V14.258C36.4919 14.8927 35.3813 15.21 34.2053 15.21C32.8239 15.21 31.7646 14.7807 31.0273 13.922C30.2993 13.0633 29.9353 11.808 29.9353 10.156C29.9353 9.10133 30.1313 8.196 30.5233 7.44C30.9246 6.67467 31.4613 6.096 32.1333 5.704C32.8053 5.312 33.5519 5.116 34.3733 5.116ZM44.813 13.04C44.813 13.3293 44.855 13.544 44.939 13.684C45.0323 13.8147 45.177 13.9173 45.373 13.992L44.995 15.182C44.575 15.1447 44.2297 15.042 43.959 14.874C43.6977 14.706 43.497 14.4493 43.357 14.104C43.105 14.4773 42.7877 14.7573 42.405 14.944C42.0317 15.1213 41.6117 15.21 41.145 15.21C40.4077 15.21 39.8243 15 39.395 14.58C38.9657 14.16 38.751 13.6093 38.751 12.928C38.751 12.1253 39.0403 11.514 39.619 11.094C40.207 10.6647 41.0423 10.45 42.125 10.45H43.049V10.03C43.049 9.554 42.937 9.22267 42.713 9.036C42.4983 8.84 42.1483 8.742 41.663 8.742C41.1217 8.742 40.4683 8.87267 39.703 9.134L39.283 7.916C40.207 7.56133 41.103 7.384 41.971 7.384C43.8657 7.384 44.813 8.23333 44.813 9.932V13.04ZM41.621 13.908C42.2277 13.908 42.7037 13.6047 43.049 12.998V11.5H42.307C41.1497 11.5 40.571 11.9293 40.571 12.788C40.571 13.1427 40.6597 13.418 40.837 13.614C41.0143 13.81 41.2757 13.908 41.621 13.908ZM50.9296 7.384C51.5922 7.384 52.1056 7.58467 52.4696 7.986C52.8429 8.378 53.0296 8.92867 53.0296 9.638V15H51.2376V9.918C51.2376 9.47933 51.1582 9.17133 50.9996 8.994C50.8502 8.81667 50.6262 8.728 50.3276 8.728C50.0196 8.728 49.7396 8.826 49.4876 9.022C49.2449 9.20867 49.0069 9.484 48.7736 9.848V15H46.9816V7.594H48.5356L48.6756 8.56C49.2822 7.776 50.0336 7.384 50.9296 7.384ZM59.0643 7.384C59.7177 7.384 60.231 7.58467 60.6043 7.986C60.9777 8.38733 61.1643 8.938 61.1643 9.638V15H59.3723V9.918C59.3723 9.47933 59.293 9.17133 59.1343 8.994C58.985 8.81667 58.761 8.728 58.4623 8.728C58.1637 8.728 57.8883 8.826 57.6363 9.022C57.3843 9.20867 57.1417 9.47933 56.9083 9.834V15H55.1163V4.64L56.9083 4.458V8.476C57.5057 7.748 58.2243 7.384 59.0643 7.384ZM66.2751 7.384C67.3671 7.384 68.2164 7.734 68.8231 8.434C69.4391 9.12467 69.7471 10.0767 69.7471 11.29C69.7471 12.0647 69.6071 12.7507 69.3271 13.348C69.0471 13.936 68.6458 14.3933 68.1231 14.72C67.6004 15.0467 66.9798 15.21 66.2611 15.21C65.1691 15.21 64.3151 14.8647 63.6991 14.174C63.0831 13.474 62.7751 12.5127 62.7751 11.29C62.7751 10.5153 62.9151 9.834 63.1951 9.246C63.4751 8.658 63.8764 8.20067 64.3991 7.874C64.9311 7.54733 65.5564 7.384 66.2751 7.384ZM66.2751 8.742C65.2018 8.742 64.6651 9.59133 64.6651 11.29C64.6651 12.1673 64.7958 12.816 65.0571 13.236C65.3278 13.6467 65.7291 13.852 66.2611 13.852C66.7931 13.852 67.1898 13.642 67.4511 13.222C67.7218 12.802 67.8571 12.158 67.8571 11.29C67.8571 10.422 67.7218 9.78267 67.4511 9.372C67.1898 8.952 66.7978 8.742 66.2751 8.742ZM81.1569 4.626V15H79.5749L79.4489 14.062C79.2155 14.4167 78.9169 14.6967 78.5529 14.902C78.1982 15.1073 77.7922 15.21 77.3349 15.21C76.4295 15.21 75.7342 14.86 75.2489 14.16C74.7635 13.46 74.5209 12.508 74.5209 11.304C74.5209 10.548 74.6422 9.876 74.8849 9.288C75.1275 8.69067 75.4729 8.224 75.9209 7.888C76.3782 7.552 76.9055 7.384 77.5029 7.384C78.2122 7.384 78.8329 7.65 79.3649 8.182V4.43L81.1569 4.626ZM77.8389 13.852C78.1562 13.852 78.4362 13.7773 78.6789 13.628C78.9215 13.4693 79.1502 13.2267 79.3649 12.9V9.512C79.1502 9.25067 78.9309 9.05467 78.7069 8.924C78.4922 8.79333 78.2402 8.728 77.9509 8.728C77.4749 8.728 77.0969 8.94267 76.8169 9.372C76.5462 9.792 76.4109 10.4313 76.4109 11.29C76.4109 12.2047 76.5322 12.8627 76.7749 13.264C77.0175 13.656 77.3722 13.852 77.8389 13.852ZM89.3837 11.122C89.3837 11.2153 89.3697 11.458 89.3417 11.85H84.6937C84.7497 12.5687 84.9364 13.082 85.2537 13.39C85.5711 13.698 85.9911 13.852 86.5137 13.852C86.8404 13.852 87.1484 13.8007 87.4377 13.698C87.7271 13.586 88.0351 13.418 88.3617 13.194L89.1037 14.216C88.2824 14.8787 87.3677 15.21 86.3597 15.21C85.2304 15.21 84.3577 14.8647 83.7417 14.174C83.1351 13.4833 82.8317 12.5407 82.8317 11.346C82.8317 10.59 82.9624 9.91333 83.2237 9.316C83.4851 8.70933 83.8631 8.238 84.3577 7.902C84.8524 7.55667 85.4404 7.384 86.1217 7.384C87.1577 7.384 87.9604 7.71533 88.5297 8.378C89.0991 9.03133 89.3837 9.946 89.3837 11.122ZM87.6057 10.604C87.6057 9.30667 87.1251 8.658 86.1637 8.658C85.7251 8.658 85.3797 8.82133 85.1277 9.148C84.8851 9.46533 84.7404 9.97867 84.6937 10.688H87.6057V10.604ZM97.5713 11.122H96.3953V15H94.5473V5.326H97.4313C99.9887 5.326 101.267 6.27333 101.267 8.168C101.267 8.812 101.109 9.344 100.791 9.764C100.474 10.184 99.9793 10.5247 99.3073 10.786L101.841 15H99.7133L97.5713 11.122ZM96.3953 9.792H97.5433C98.1313 9.792 98.5747 9.666 98.8733 9.414C99.1813 9.15267 99.3353 8.73733 99.3353 8.168C99.3353 7.64533 99.1767 7.26733 98.8593 7.034C98.5513 6.79133 98.0613 6.67 97.3893 6.67H96.3953V9.792ZM108.989 12.298C108.989 13.0167 108.765 13.6233 108.317 14.118C107.869 14.6033 107.239 14.9207 106.427 15.07V17.212H105.055V15.14C103.86 15.0653 102.875 14.6453 102.101 13.88L103.053 12.83C103.734 13.4647 104.523 13.782 105.419 13.782C105.932 13.782 106.347 13.6607 106.665 13.418C106.982 13.1753 107.141 12.8347 107.141 12.396C107.141 12.1253 107.085 11.9013 106.973 11.724C106.87 11.5467 106.688 11.388 106.427 11.248C106.165 11.108 105.787 10.9633 105.293 10.814C104.294 10.5153 103.575 10.1467 103.137 9.708C102.698 9.26933 102.479 8.70467 102.479 8.014C102.479 7.33267 102.712 6.768 103.179 6.32C103.655 5.86267 104.28 5.58267 105.055 5.48V3.422H106.427V5.48C106.893 5.54533 107.309 5.67133 107.673 5.858C108.046 6.03533 108.396 6.278 108.723 6.586L107.813 7.608C107.505 7.328 107.183 7.12267 106.847 6.992C106.511 6.86133 106.147 6.796 105.755 6.796C105.325 6.796 104.975 6.894 104.705 7.09C104.443 7.27667 104.313 7.54733 104.313 7.902C104.313 8.13533 104.364 8.33133 104.467 8.49C104.579 8.63933 104.77 8.784 105.041 8.924C105.311 9.05467 105.708 9.19933 106.231 9.358C107.155 9.64733 107.845 10.0067 108.303 10.436C108.76 10.8653 108.989 11.486 108.989 12.298ZM116.787 11.472V12.844H115.653V15H113.903V12.844H109.899V11.612L112.643 5.396L114.169 5.97L111.761 11.472H113.917L114.099 9.106H115.653V11.472H116.787ZM120.123 5.41C120.757 5.41 121.303 5.52667 121.761 5.76C122.227 5.99333 122.582 6.31067 122.825 6.712C123.067 7.11333 123.189 7.56133 123.189 8.056C123.189 8.588 123.072 9.10133 122.839 9.596C122.615 10.0813 122.237 10.6227 121.705 11.22C121.173 11.8173 120.393 12.606 119.367 13.586H123.399L123.203 15H117.337V13.684C118.531 12.4707 119.385 11.5747 119.899 10.996C120.421 10.408 120.79 9.90867 121.005 9.498C121.229 9.078 121.341 8.644 121.341 8.196C121.341 7.76667 121.215 7.43067 120.963 7.188C120.72 6.94533 120.393 6.824 119.983 6.824C119.619 6.824 119.297 6.90333 119.017 7.062C118.746 7.21133 118.461 7.46333 118.163 7.818L117.071 6.95C117.864 5.92333 118.881 5.41 120.123 5.41ZM130.102 6.908H126.574V9.246C127.041 9.01267 127.517 8.896 128.002 8.896C128.525 8.896 128.992 9.01733 129.402 9.26C129.813 9.50267 130.13 9.85267 130.354 10.31C130.588 10.7673 130.704 11.3087 130.704 11.934C130.704 12.578 130.56 13.1473 130.27 13.642C129.981 14.1367 129.57 14.524 129.038 14.804C128.506 15.0747 127.89 15.21 127.19 15.21C126.565 15.21 126.01 15.098 125.524 14.874C125.048 14.6407 124.614 14.3093 124.222 13.88L125.244 12.928C125.786 13.5253 126.42 13.824 127.148 13.824C127.68 13.824 128.096 13.6607 128.394 13.334C128.702 13.0073 128.856 12.5407 128.856 11.934C128.856 10.7673 128.352 10.184 127.344 10.184C127.13 10.184 126.929 10.212 126.742 10.268C126.556 10.3147 126.35 10.394 126.126 10.506H124.852V5.578H130.312L130.102 6.908ZM132.896 12.942C133.222 12.942 133.493 13.0493 133.708 13.264C133.932 13.4787 134.044 13.7493 134.044 14.076C134.044 14.2533 134.016 14.4353 133.96 14.622C133.904 14.8087 133.81 15.0467 133.68 15.336L132.77 17.408H131.678L132.252 15C131.934 14.7853 131.776 14.4727 131.776 14.062C131.776 13.7447 131.883 13.4787 132.098 13.264C132.312 13.0493 132.578 12.942 132.896 12.942ZM138.168 5.578V15H136.404V7.384L134.304 8.658L133.52 7.454L136.586 5.578H138.168ZM145.577 5.578V6.838L142.091 15.182L140.453 14.65L143.729 6.964H139.753V5.578H145.577Z" fill="#9F9FC4"/>
  </svg>
