<svg width="39" height="40" viewBox="0 0 39 40" fill="none" xmlns="http://www.w3.org/2000/svg">
<path fill-rule="evenodd" clip-rule="evenodd" d="M35.6818 30.757C35.9936 31.0845 36.5454 30.8627 36.5438 30.4105L36.5148 21.8421L36.5148 9.21053C36.5148 6.88512 34.7194 5 32.5047 5L13.7913 5C11.5766 5 9.78125 6.88512 9.78125 9.21053L9.78125 15L22.3974 15C24.0542 15 25.3974 16.3431 25.3974 18L25.3974 26.0526L31.2014 26.0526L35.6818 30.757Z" fill="#E9F4FF"/>
<path fill-rule="evenodd" clip-rule="evenodd" d="M3.15039 30L3.15039 21.6667C3.15039 19.8258 4.57171 18.3334 6.32499 18.3334L19.0234 18.3334C20.7767 18.3334 22.198 19.8258 22.198 21.6667L22.198 30C22.198 31.841 20.7767 33.3334 19.0234 33.3334L6.50869 33.3334L4.04633 35.808C3.73171 36.1242 3.1919 35.9014 3.1919 35.4553L3.1919 30.5405C3.16459 30.3646 3.15039 30.184 3.15039 30ZM9.52328 23.8334C9.52328 23.5572 9.74713 23.3334 10.0233 23.3334L18.5471 23.3334C18.8232 23.3334 19.0471 23.5572 19.0471 23.8334L19.0471 24.5C19.0471 24.7762 18.8232 25 18.5471 25L10.0233 25C9.74713 25 9.52328 24.7762 9.52328 24.5L9.52328 23.8334ZM14.7852 26.6667C14.509 26.6667 14.2852 26.8906 14.2852 27.1667L14.2852 27.8334C14.2852 28.1095 14.509 28.3334 14.7852 28.3334L18.5471 28.3334C18.8232 28.3334 19.0471 28.1095 19.0471 27.8334L19.0471 27.1667C19.0471 26.8906 18.8232 26.6667 18.5471 26.6667L14.7852 26.6667Z" fill="#E9F4FF"/>
</svg>
