<svg width="40" height="40" viewBox="0 0 40 40" fill="none" xmlns="http://www.w3.org/2000/svg">
<path fill-rule="evenodd" clip-rule="evenodd" d="M37.5168 30.8088C37.8324 31.1244 38.372 30.8998 38.3704 30.4535L38.3397 21.8421V9.21053C38.3397 6.88512 36.4546 5 34.1292 5H14.4801C12.1546 5 10.2695 6.88512 10.2695 9.21053V15H23.6664C25.3233 15 26.6665 16.3431 26.6665 18V26.0526H32.7607L37.5168 30.8088Z" fill="#B99C03"/>
<path opacity="0.3" fill-rule="evenodd" clip-rule="evenodd" d="M3.30859 29.9999V21.6666C3.30859 19.8256 4.80098 18.3333 6.64193 18.3333H19.9753C21.8162 18.3333 23.3086 19.8256 23.3086 21.6666V29.9999C23.3086 31.8409 21.8162 33.3333 19.9753 33.3333H6.83481L4.19791 35.8571C3.8799 36.1615 3.35218 35.9361 3.35218 35.4959V30.5404C3.3235 30.3645 3.30859 30.1839 3.30859 29.9999ZM10.0001 23.8333C10.0001 23.5571 10.224 23.3333 10.5001 23.3333H19.5001C19.7763 23.3333 20.0001 23.5571 20.0001 23.8333V24.4999C20.0001 24.7761 19.7763 24.9999 19.5001 24.9999H10.5001C10.224 24.9999 10.0001 24.7761 10.0001 24.4999V23.8333ZM15.5001 26.6666C15.224 26.6666 15.0001 26.8904 15.0001 27.1666V27.8333C15.0001 28.1094 15.224 28.3333 15.5001 28.3333H19.5001C19.7763 28.3333 20.0001 28.1094 20.0001 27.8333V27.1666C20.0001 26.8904 19.7763 26.6666 19.5001 26.6666H15.5001Z" fill="#BA7002"/>
</svg>
