<svg width="96" height="81" viewBox="0 0 96 81" fill="none" xmlns="http://www.w3.org/2000/svg">
<path d="M0.939453 5.56772C0.939453 2.97829 3.0386 0.87915 5.62802 0.87915H90.8708C93.4603 0.87915 95.5594 2.9783 95.5594 5.56772V75.8705C95.5594 78.46 93.4602 80.5591 90.8708 80.5591H5.62802C3.0386 80.5591 0.939453 78.46 0.939453 75.8705V5.56772Z" fill="#F4F0FF"/>
<path opacity="0.3" fill-rule="evenodd" clip-rule="evenodd" d="M61.5423 48.8552L66.043 48.8552V39.3552C66.043 27.5501 56.9767 17.9802 45.793 17.9802C34.6092 17.9802 25.543 27.5501 25.543 39.3552V48.8552L30.0423 48.8552V39.3552C30.0423 30.1735 37.0938 22.7302 45.7923 22.7302C54.4908 22.7302 61.5423 30.1735 61.5423 39.3552V48.8552Z" fill="#6D36FB"/>
<path fill-rule="evenodd" clip-rule="evenodd" d="M27.1058 44.1052C26.2427 44.1052 25.543 44.8049 25.543 45.6681V59.1674C25.543 60.0305 26.2427 60.7302 27.1058 60.7302H35.2301C36.0933 60.7302 36.793 60.0305 36.793 59.1674V45.6681C36.793 44.8049 36.0933 44.1052 35.2301 44.1052H27.1058ZM56.356 44.1052C55.4928 44.1052 54.7931 44.8049 54.7931 45.6681V59.1674C54.7931 60.0305 55.4928 60.7302 56.356 60.7302H64.4803C65.3434 60.7302 66.0431 60.0305 66.0431 59.1674V45.6681C66.0431 44.8049 65.3434 44.1052 64.4803 44.1052H56.356Z" fill="#6D36FB"/>
</svg>
