<svg width="32" height="32" viewBox="0 0 32 32" fill="none" xmlns="http://www.w3.org/2000/svg">
  <path d="M15.9987 9.83617C14.3635 9.83617 12.7954 10.4857 11.6391 11.642C10.4829 12.7982 9.83335 14.3664 9.83335 16.0015C9.83335 17.6367 10.4829 19.2048 11.6391 20.361C12.7954 21.5173 14.3635 22.1668 15.9987 22.1668C17.6338 22.1668 19.202 21.5173 20.3582 20.361C21.5145 19.2048 22.164 17.6367 22.164 16.0015C22.164 14.3664 21.5145 12.7982 20.3582 11.642C19.202 10.4857 17.6338 9.83617 15.9987 9.83617ZM15.9987 20.0055C14.9364 20.0055 13.9176 19.5835 13.1665 18.8324C12.4153 18.0812 11.9934 17.0624 11.9934 16.0002C11.9934 14.9379 12.4153 13.9191 13.1665 13.168C13.9176 12.4168 14.9364 11.9948 15.9987 11.9948C17.061 11.9948 18.0797 12.4168 18.8309 13.168C19.582 13.9191 20.004 14.9379 20.004 16.0002C20.004 17.0624 19.582 18.0812 18.8309 18.8324C18.0797 19.5835 17.061 20.0055 15.9987 20.0055Z" fill="currentColor"/>
  <path d="M22.4074 11.0469C23.2012 11.0469 23.8447 10.4034 23.8447 9.60954C23.8447 8.81572 23.2012 8.17221 22.4074 8.17221C21.6136 8.17221 20.9701 8.81572 20.9701 9.60954C20.9701 10.4034 21.6136 11.0469 22.4074 11.0469Z" fill="currentColor"/>
  <path d="M27.3774 8.14817C27.0687 7.35108 26.597 6.62721 25.9925 6.02291C25.3879 5.41862 24.6639 4.9472 23.8667 4.63884C22.9338 4.28865 21.9483 4.09929 20.952 4.07884C19.668 4.02284 19.2614 4.00684 16.0054 4.00684C12.7494 4.00684 12.332 4.00684 11.0587 4.07884C10.0632 4.09824 9.07836 4.28764 8.14669 4.63884C7.34927 4.94684 6.62504 5.41813 6.02046 6.02247C5.41589 6.62682 4.94432 7.35087 4.63602 8.14817C4.28576 9.08099 4.09684 10.0666 4.07735 11.0628C4.02002 12.3455 4.00269 12.7522 4.00269 16.0095C4.00269 19.2655 4.00269 19.6802 4.07735 20.9562C4.09735 21.9535 4.28535 22.9375 4.63602 23.8722C4.94519 24.6692 5.41721 25.3929 6.02193 25.9972C6.62665 26.6015 7.35077 27.0729 8.14802 27.3815C9.07793 27.7458 10.0632 27.9487 11.0614 27.9815C12.3454 28.0375 12.752 28.0548 16.008 28.0548C19.264 28.0548 19.6814 28.0548 20.9547 27.9815C21.9508 27.9612 22.9363 27.7723 23.8694 27.4228C24.6664 27.1138 25.3902 26.6419 25.9946 26.0375C26.5991 25.433 27.0709 24.7092 27.38 23.9122C27.7307 22.9788 27.9187 21.9948 27.9387 20.9975C27.996 19.7148 28.0134 19.3082 28.0134 16.0508C28.0134 12.7935 28.0134 12.3802 27.9387 11.1042C27.9232 10.0939 27.7333 9.09383 27.3774 8.14817ZM25.7534 20.8575C25.7448 21.6259 25.6045 22.3872 25.3387 23.1082C25.1385 23.6267 24.8319 24.0975 24.4388 24.4904C24.0456 24.8833 23.5746 25.1896 23.056 25.3895C22.343 25.6541 21.5898 25.7944 20.8294 25.8042C19.5627 25.8628 19.2054 25.8775 15.9574 25.8775C12.7067 25.8775 12.3747 25.8775 11.084 25.8042C10.3239 25.7949 9.57112 25.6546 8.85869 25.3895C8.33827 25.1908 7.86535 24.8851 7.47054 24.4921C7.07572 24.0991 6.7678 23.6277 6.56669 23.1082C6.30461 22.3949 6.16443 21.6426 6.15202 20.8828C6.09469 19.6162 6.08135 19.2588 6.08135 16.0108C6.08135 12.7615 6.08135 12.4295 6.15202 11.1375C6.16064 10.3695 6.30089 9.60873 6.56669 8.88817C6.97335 7.83617 7.80669 7.00817 8.85869 6.6055C9.57147 6.34169 10.3241 6.20145 11.084 6.19084C12.352 6.1335 12.708 6.1175 15.9574 6.1175C19.2067 6.1175 19.54 6.1175 20.8294 6.19084C21.5899 6.19999 22.3432 6.34026 23.056 6.6055C23.5746 6.80587 24.0455 7.11244 24.4386 7.50554C24.8318 7.89865 25.1383 8.3696 25.3387 8.88817C25.6008 9.60143 25.7409 10.3537 25.7534 11.1135C25.8107 12.3815 25.8254 12.7375 25.8254 15.9868C25.8254 19.2348 25.8254 19.5842 25.768 20.8588H25.7534V20.8575Z" fill="currentColor"/>
  </svg>
