<svg width="90" height="76" viewBox="0 0 90 76" fill="none" xmlns="http://www.w3.org/2000/svg">
  <path d="M0.165039 6.66334C0.165039 3.34963 2.85133 0.66333 6.16504 0.66333H83.5283C86.842 0.66333 89.5283 3.34962 89.5283 6.66333V69.9166C89.5283 73.2303 86.842 75.9166 83.5283 75.9166H6.16504C2.85133 75.9166 0.165039 73.2303 0.165039 69.9166V6.66334Z" fill="#F4F0FF"/>
  <path opacity="0.3" fill-rule="evenodd" clip-rule="evenodd" d="M33.335 12.1897C31.6875 12.1897 30.3521 13.6873 30.3521 15.5346V59.6874C30.3521 61.5347 31.6875 63.0323 33.335 63.0323H52.4255C54.073 63.0323 55.4084 61.5347 55.4084 59.6874V15.5346C55.4084 13.6873 54.073 12.1897 52.4255 12.1897H33.335Z" fill="#572BC9"/>
  <path fill-rule="evenodd" clip-rule="evenodd" d="M33.3351 8.17603H52.4257C56.05 8.17603 58.9881 11.4707 58.9881 15.5348V59.6876C58.9881 63.7518 56.05 67.0464 52.4257 67.0464H33.3351C29.7108 67.0464 26.7727 63.7518 26.7727 59.6876V15.5348C26.7727 11.4707 29.7108 8.17603 33.3351 8.17603ZM33.3351 12.1899C31.6877 12.1899 30.3522 13.6875 30.3522 15.5348V59.6876C30.3522 61.5349 31.6877 63.0325 33.3351 63.0325H52.4257C54.0731 63.0325 55.4086 61.5349 55.4086 59.6876V15.5348C55.4086 13.6875 54.0731 12.1899 52.4257 12.1899H50.0394V10.683C50.0394 10.4068 49.8155 10.183 49.5394 10.183H36.2214C35.9453 10.183 35.7214 10.4068 35.7214 10.683V12.1899H33.3351ZM35.7214 12.1899V15.0348C35.7214 15.311 35.9453 15.5348 36.2214 15.5348H49.5394C49.8155 15.5348 50.0394 15.311 50.0394 15.0348V12.1899H35.7214Z" fill="#6D36FB"/>
  </svg>
