<svg width="70" height="58" viewBox="0 0 70 58" fill="none" xmlns="http://www.w3.org/2000/svg">
  <path d="M0.681641 4.77542C0.681641 2.16947 2.79417 0.056942 5.40011 0.056942H64.4965C67.1024 0.056942 69.215 2.16947 69.215 4.77542V53.0507C69.215 55.6567 67.1024 57.7692 64.4965 57.7692H5.40012C2.79418 57.7692 0.681641 55.6567 0.681641 53.0507V4.77542Z" fill="#F4F0FF"/>
  <path fill-rule="evenodd" clip-rule="evenodd" d="M29.457 15.2954C29.457 14.861 29.8091 14.509 30.2434 14.509H53.8798C54.3141 14.509 54.6662 14.861 54.6662 15.2954V21.9313C54.6662 22.3656 54.3141 22.7177 53.8798 22.7177H30.2434C29.8091 22.7177 29.457 22.3656 29.457 21.9313V15.2954ZM29.457 27.6085C29.457 27.1742 29.8091 26.8221 30.2435 26.8221H53.8798C54.3141 26.8221 54.6662 27.1742 54.6662 27.6085V34.2444C54.6662 34.6787 54.3141 35.0308 53.8798 35.0308H30.2435C29.8091 35.0308 29.457 34.6787 29.457 34.2444V27.6085ZM30.2435 39.1352C29.8091 39.1352 29.457 39.4873 29.457 39.9216V46.5575C29.457 46.9918 29.8091 47.3439 30.2435 47.3439H53.8798C54.3141 47.3439 54.6662 46.9918 54.6662 46.5575V39.9216C54.6662 39.4873 54.3141 39.1352 53.8798 39.1352H30.2435Z" fill="#6D36FB"/>
  <rect opacity="0.3" x="15.8828" y="14.509" width="9.69584" height="32.835" rx="0.786412" fill="#6D36FB"/>
  </svg>
