<svg width="40" height="41" viewBox="0 0 40 41" fill="none" xmlns="http://www.w3.org/2000/svg">
  <g opacity="0.01">
  <path d="M21 20.5C21 20.7761 20.7761 21 20.5 21C20.2239 21 20 20.7761 20 20.5C20 20.2239 20.2239 20 20.5 20C20.7761 20 21 20.2239 21 20.5Z" fill="white"/>
  </g>
  <path fill-rule="evenodd" clip-rule="evenodd" d="M15 16.6667V31.6667L18.1526 32.7176C19.3762 33.1254 20.6575 33.3334 21.9473 33.3334H30.8739C32.304 33.3334 33.5352 32.324 33.8157 30.9217L35.8982 20.5091C36.2856 18.5721 34.7278 16.796 32.7569 16.9274L24.1667 17.5L24.7016 11.6157C24.8618 9.8531 23.474 8.33337 21.7041 8.33337C20.6469 8.33337 19.6672 8.88808 19.1232 9.79466L15 16.6667Z" fill="#6BB5FF"/>
  <path opacity="0.3" d="M10.6663 15H4.33301C3.78072 15 3.33301 15.4477 3.33301 16V32.3333C3.33301 32.8856 3.78072 33.3333 4.33301 33.3333H10.6663C11.2186 33.3333 11.6663 32.8856 11.6663 32.3333V16C11.6663 15.4477 11.2186 15 10.6663 15Z" fill="#6BB5FF"/>
  </svg>
