<svg width="40" height="41" viewBox="0 0 40 41" fill="none" xmlns="http://www.w3.org/2000/svg">
<path d="M8.48884 32.0111H33.1555C34.0637 32.0111 34.8 32.7473 34.8 33.6555C34.8 34.5637 34.0637 35.3 33.1555 35.3H6.8444C5.93619 35.3 5.19995 34.5637 5.19995 33.6555V7.3444C5.19995 6.43619 5.93619 5.69995 6.8444 5.69995C7.7526 5.69995 8.48884 6.43619 8.48884 7.3444V32.0111Z" fill="#6D36FB"/>
<path opacity="0.3" d="M14.622 24.9134C14.0008 25.576 12.9601 25.6096 12.2976 24.9884C11.635 24.3673 11.6014 23.3266 12.2226 22.664L18.3893 16.0862C18.99 15.4455 19.9882 15.3899 20.6564 15.96L25.5235 20.1133L31.8649 12.0809C32.4277 11.368 33.4618 11.2464 34.1746 11.8091C34.8874 12.3719 35.0091 13.406 34.4463 14.1188L27.0463 23.4921C26.4683 24.2243 25.3977 24.3296 24.6882 23.7241L19.7153 19.4805L14.622 24.9134Z" fill="#6D36FB"/>
</svg>
