<svg width="32" height="32" viewBox="0 0 32 32" fill="none" xmlns="http://www.w3.org/2000/svg">
  <path d="M6.6439 9.5959C8.25509 9.5959 9.56123 8.28976 9.56123 6.67856C9.56123 5.06736 8.25509 3.76123 6.6439 3.76123C5.0327 3.76123 3.72656 5.06736 3.72656 6.67856C3.72656 8.28976 5.0327 9.5959 6.6439 9.5959Z" fill="currentColor"/>
  <path d="M12.3156 11.8067V27.9921H17.3409V19.9881C17.3409 17.8761 17.7382 15.8307 20.3569 15.8307C22.9396 15.8307 22.9716 18.2454 22.9716 20.1214V27.9934H27.9996V19.1174C27.9996 14.7574 27.0609 11.4067 21.9649 11.4067C19.5182 11.4067 17.8782 12.7494 17.2076 14.0201H17.1396V11.8067H12.3156ZM4.12622 11.8067H9.15955V27.9921H4.12622V11.8067Z" fill="currentColor"/>
  </svg>
