<svg width="70" height="70" viewBox="0 0 70 70" fill="none" xmlns="http://www.w3.org/2000/svg">
  <rect width="70" height="70" rx="3" fill="url(#paint0_linear_1988_1156)"/>
  <path opacity="0.3" d="M35 25.0827L29.3577 31.8535C28.8862 32.4192 28.0455 32.4957 27.4798 32.0243C26.9141 31.5528 26.8377 30.7121 27.3091 30.1464L33.9757 22.1464C34.5088 21.5067 35.4913 21.5067 36.0243 22.1464L42.691 30.1464C43.1624 30.7121 43.086 31.5528 42.5203 32.0243C41.9546 32.4957 41.1138 32.4192 40.6424 31.8535L35 25.0827Z" fill="#6D36FB"/>
  <path fill-rule="evenodd" clip-rule="evenodd" d="M22.6666 31C22.1909 31 21.8683 31.484 22.0512 31.9231L27.8205 45.7692C28.131 46.5145 28.8592 47 29.6666 47H40.3333C41.1407 47 41.8689 46.5145 42.1794 45.7692L47.9487 31.9231C48.1316 31.484 47.809 31 47.3333 31H22.6666ZM37.6666 39C37.6666 40.4728 36.4727 41.6667 35 41.6667C33.5272 41.6667 32.3333 40.4728 32.3333 39C32.3333 37.5272 33.5272 36.3333 35 36.3333C36.4727 36.3333 37.6666 37.5272 37.6666 39Z" fill="#6D36FB"/>
  <defs>
  <linearGradient id="paint0_linear_1988_1156" x1="0" y1="0" x2="70" y2="70" gradientUnits="userSpaceOnUse">
  <stop stop-color="#F3EEFF"/>
  <stop offset="1" stop-color="#F3EEFF" stop-opacity="0"/>
  </linearGradient>
  </defs>
  </svg>
