<svg width="51" height="41" viewBox="0 0 51 41" fill="none" xmlns="http://www.w3.org/2000/svg">
<path d="M50.4347 0V10.5994H46.8239C44.7273 10.5994 43.0189 10.91 41.6989 11.5313C40.4564 12.1525 39.5246 13.2784 38.9034 14.9091C38.2822 16.4621 37.9716 18.6364 37.9716 21.4318V29.9347L34.4773 22.7131C35.0208 22.2472 35.7973 21.8977 36.8068 21.6648C37.8163 21.3542 38.9422 21.1989 40.1847 21.1989C42.9025 21.1989 45.1932 22.053 47.0568 23.7614C48.9205 25.392 49.8523 27.7216 49.8523 30.75C49.8523 33.6231 48.9593 36.0691 47.1733 38.0881C45.3873 40.0294 42.8248 41 39.4858 41C37.3116 41 35.2926 40.4953 33.429 39.4858C31.643 38.4763 30.1676 36.768 29.0028 34.3608C27.9157 31.9536 27.3722 28.6922 27.3722 24.5767V22.8295C27.3722 17.3163 28.1487 12.8902 29.7017 9.55114C31.3324 6.21212 33.6619 3.80493 36.6903 2.32955C39.7187 0.776517 43.446 0 47.8722 0H50.4347ZM23.0625 0V10.5994H19.4517C17.3551 10.5994 15.6468 10.91 14.3267 11.5313C13.0843 12.1525 12.1525 13.2784 11.5312 14.9091C10.91 16.4621 10.5994 18.6364 10.5994 21.4318V29.9347L7.10511 22.7131C7.64867 22.2472 8.42519 21.8977 9.43466 21.6648C10.4441 21.3542 11.5701 21.1989 12.8125 21.1989C15.5303 21.1989 17.821 22.053 19.6847 23.7614C21.5483 25.392 22.4801 27.7216 22.4801 30.75C22.4801 33.6231 21.5871 36.0691 19.8011 38.0881C18.0152 40.0294 15.4527 41 12.1136 41C9.93939 41 7.92045 40.4953 6.05682 39.4858C4.27083 38.4763 2.79545 36.768 1.63068 34.3608C0.543561 31.9536 0 28.6922 0 24.5767V22.8295C0 17.3163 0.776515 12.8902 2.32955 9.55114C3.96023 6.21212 6.28977 3.80493 9.31818 2.32955C12.3466 0.776517 16.0739 0 20.5 0H23.0625Z" fill="#D4D4E7"/>
</svg>
