<svg width="72" height="61" viewBox="0 0 72 61" fill="none" xmlns="http://www.w3.org/2000/svg">
  <path d="M0.220703 5.32242C0.220703 2.62051 2.41103 0.430176 5.11294 0.430176H66.3856C69.0875 0.430176 71.2778 2.62051 71.2778 5.32241V55.3755C71.2778 58.0774 69.0875 60.2678 66.3856 60.2678H5.11295C2.41104 60.2678 0.220703 58.0774 0.220703 55.3755V5.32242Z" fill="#F4F0FF"/>
  <rect x="18.375" y="26.2505" width="34.5609" height="23.5878" rx="1.63075" fill="#6D36FB"/>
  <rect x="23.5586" y="18.9927" width="24.1926" height="3.62889" rx="0.407687" fill="#6D36FB"/>
  <rect x="27.0176" y="11.7349" width="17.2804" height="3.62889" rx="0.407687" fill="#6D36FB"/>
  <path fill-rule="evenodd" clip-rule="evenodd" d="M33.6407 46.2089C31.8911 46.2089 30.4727 44.9678 30.4727 43.4369C30.4727 41.9059 31.8911 40.6648 33.6407 40.6648C34.011 40.6648 34.3665 40.7204 34.6968 40.8225V33.1297C34.6968 32.5611 35.0345 32.0585 35.5304 31.8889L41.6026 29.939C42.3676 29.6774 43.145 30.3028 43.145 31.1798V33.1297C43.145 33.7796 42.5654 34.1947 42.089 34.3142C41.4035 34.4861 39.6434 34.8557 36.8088 35.423V43.4936C36.8088 43.5932 36.8011 43.6854 36.7861 43.7703C36.5979 45.144 35.2615 46.2089 33.6407 46.2089Z" fill="white"/>
  </svg>
