<svg width="40" height="41" viewBox="0 0 40 41" fill="none" xmlns="http://www.w3.org/2000/svg">
<path opacity="0.3" d="M9.76125 3.83337H23.2596C23.6143 3.83337 23.9575 3.95906 24.2283 4.18811L32.8014 11.4395C33.1383 11.7245 33.3327 12.1435 33.3327 12.5848V33.9723C33.3327 36.9565 33.2986 37.1667 30.2374 37.1667H9.76125C6.7001 37.1667 6.66602 36.9565 6.66602 33.9723V7.02782C6.66602 4.04358 6.7001 3.83337 9.76125 3.83337Z" fill="#DF32B3"/>
<path fill-rule="evenodd" clip-rule="evenodd" d="M16.666 26.7858C16.666 27.1878 17.1163 27.4254 17.4482 27.1986L25.71 21.5511C26 21.353 26.0006 20.9255 25.7112 20.7264L17.4494 15.0434C17.1176 14.8152 16.666 15.0527 16.666 15.4553V26.7858Z" fill="#A61381"/>
</svg>
