<svg width="39" height="40" viewBox="0 0 39 40" fill="none" xmlns="http://www.w3.org/2000/svg">
<path fill-rule="evenodd" clip-rule="evenodd" d="M3.17383 35.1667C3.17383 35.9951 3.8454 36.6667 4.67383 36.6667L33.4199 36.6667C34.2483 36.6667 34.9199 35.9951 34.9199 35.1667L34.9199 14.8334C34.9199 14.0049 34.2483 13.3334 33.4199 13.3334L15.8722 13.3334L11.5537 8.79889C11.2706 8.50162 10.878 8.33337 10.4675 8.33337L4.67383 8.33337C3.8454 8.33337 3.17383 9.00495 3.17383 9.83337L3.17383 35.1667Z" fill="#572BC9"/>
<path fill-rule="evenodd" clip-rule="evenodd" d="M17.1952 33.3334C15.588 33.3334 14.2852 32.1934 14.2852 30.7871C14.2852 29.3808 15.588 28.2408 17.1952 28.2408C17.5353 28.2408 17.8618 28.2918 18.1652 28.3857L18.1652 21.3194C18.1652 20.7971 18.4754 20.3354 18.931 20.1797L24.5086 18.3886C25.2113 18.1483 25.9254 18.7227 25.9254 19.5283L25.9254 21.3194C25.9254 21.9164 25.393 22.2977 24.9554 22.4074C24.3257 22.5653 22.709 22.9048 20.1053 23.426L20.1053 30.8392C20.1053 30.9307 20.0982 31.0153 20.0844 31.0934C19.9115 32.3552 18.6839 33.3334 17.1952 33.3334Z" fill="white"/>
</svg>
