<svg width="40" height="40" viewBox="0 0 40 40" fill="none" xmlns="http://www.w3.org/2000/svg">
<path opacity="0.3" fill-rule="evenodd" clip-rule="evenodd" d="M3.33398 33.5C3.33398 34.3284 4.00556 35 4.83398 35H35.1673C35.9957 35 36.6673 34.3284 36.6673 33.5V13.1667C36.6673 12.3382 35.9957 11.6667 35.1673 11.6667H16.6673L12.1067 7.106C11.8254 6.82469 11.4438 6.66666 11.046 6.66666H4.83398C4.00556 6.66666 3.33398 7.33823 3.33398 8.16666V33.5Z" fill="#6D36FB"/>
<path fill-rule="evenodd" clip-rule="evenodd" d="M16.666 29.1271C16.666 29.5291 17.1163 29.7667 17.4482 29.5399L25.71 23.8924C26 23.6942 26.0006 23.2668 25.7112 23.0677L17.4494 17.3847C17.1176 17.1565 16.666 17.394 16.666 17.7966V29.1271Z" fill="#6D36FB"/>
</svg>
