<svg width="40" height="40" viewBox="0 0 40 40" fill="none" xmlns="http://www.w3.org/2000/svg">
  <g opacity="0.01">
  <path d="M21 19.5C21 19.7761 20.7761 20 20.5 20C20.2239 20 20 19.7761 20 19.5C20 19.2239 20.2239 19 20.5 19C20.7761 19 21 19.2239 21 19.5Z" fill="white"/>
  </g>
  <path opacity="0.3" d="M34.6663 15H5.33301C4.22844 15 3.33301 15.8954 3.33301 17V34.6667C3.33301 35.7713 4.22844 36.6667 5.33301 36.6667H34.6663C35.7709 36.6667 36.6663 35.7713 36.6663 34.6667V17C36.6663 15.8954 35.7709 15 34.6663 15Z" fill="#6D36FB"/>
  <path opacity="0.3" d="M31.1663 8.33337H8.83301C8.55687 8.33337 8.33301 8.55723 8.33301 8.83337V11.1667C8.33301 11.4428 8.55687 11.6667 8.83301 11.6667H31.1663C31.4424 11.6667 31.6663 11.4428 31.6663 11.1667V8.83337C31.6663 8.55723 31.4424 8.33337 31.1663 8.33337Z" fill="#6D36FB"/>
  <path opacity="0.3" d="M27.8332 1.66663H12.1665C11.8904 1.66663 11.6665 1.89048 11.6665 2.16663V4.49996C11.6665 4.7761 11.8904 4.99996 12.1665 4.99996H27.8332C28.1093 4.99996 28.3332 4.7761 28.3332 4.49996V2.16663C28.3332 1.89048 28.1093 1.66663 27.8332 1.66663Z" fill="#6D36FB"/>
  <path fill-rule="evenodd" clip-rule="evenodd" d="M18.0556 33.3334C16.368 33.3334 15 32.1934 15 30.7871C15 29.3808 16.368 28.2408 18.0556 28.2408C18.4127 28.2408 18.7555 28.2918 19.0741 28.3857V21.3194C19.0741 20.7971 19.3998 20.3354 19.8781 20.1797L25.7346 18.3886C26.4725 18.1483 27.2222 18.7227 27.2222 19.5283V21.3194C27.2222 21.9164 26.6632 22.2977 26.2037 22.4074C25.5426 22.5653 23.845 22.9048 21.1111 23.426V30.8392C21.1111 30.9307 21.1037 31.0153 21.0892 31.0934C20.9077 32.3552 19.6187 33.3334 18.0556 33.3334Z" fill="#6D36FB"/>
  </svg>
