<svg width="96" height="81" viewBox="0 0 96 81" fill="none" xmlns="http://www.w3.org/2000/svg">
<path d="M0.939453 6.87989C0.939453 3.56618 3.62574 0.879883 6.93945 0.879883H89.5594C92.8731 0.879883 95.5594 3.56617 95.5594 6.87988V74.5598C95.5594 77.8735 92.8731 80.5598 89.5594 80.5598H6.93946C3.62575 80.5598 0.939453 77.8735 0.939453 74.5598V6.87989Z" fill="#F4F0FF"/>
<path opacity="0.3" fill-rule="evenodd" clip-rule="evenodd" d="M22.213 19.1382C21.6795 18.9953 21.1312 19.3119 20.9883 19.8453L12.706 50.7549C12.5631 51.2884 12.8797 51.8367 13.4131 51.9797L68.9539 66.8618C69.4873 67.0047 70.0357 66.6881 70.1786 66.1547L78.4608 35.2451C78.6038 34.7116 78.2872 34.1633 77.7537 34.0203L22.213 19.1382ZM56.5309 45.9335C54.9109 51.9795 48.6964 55.5674 42.6505 53.9474C36.6045 52.3274 33.0166 46.1129 34.6366 40.067C36.2566 34.021 42.4711 30.4331 48.517 32.0531C54.563 33.6731 58.1509 39.8876 56.5309 45.9335Z" fill="#6D36FB"/>
<path fill-rule="evenodd" clip-rule="evenodd" d="M16.8333 26C16.281 26 15.8333 26.4477 15.8333 27V59C15.8333 59.5523 16.281 60 16.8333 60H74.3333C74.8855 60 75.3333 59.5523 75.3333 59V27C75.3333 26.4477 74.8855 26 74.3333 26H16.8333ZM56.9166 43C56.9166 49.2592 51.8425 54.3333 45.5833 54.3333C39.324 54.3333 34.2499 49.2592 34.2499 43C34.2499 36.7408 39.324 31.6667 45.5833 31.6667C51.8425 31.6667 56.9166 36.7408 56.9166 43ZM45.5833 48.6667C48.7129 48.6667 51.2499 46.1296 51.2499 43C51.2499 39.8704 48.7129 37.3333 45.5833 37.3333C42.4536 37.3333 39.9166 39.8704 39.9166 43C39.9166 46.1296 42.4536 48.6667 45.5833 48.6667Z" fill="#6D36FB"/>
</svg>
