<svg width="89" height="75" viewBox="0 0 89 75" fill="none" xmlns="http://www.w3.org/2000/svg">
<path d="M0.402344 5.58358C0.402344 2.49985 2.9022 0 5.98593 0H82.8718C85.9555 0 88.4554 2.49986 88.4554 5.58358V68.5663C88.4554 71.6501 85.9555 74.1499 82.8718 74.1499H5.98593C2.9022 74.1499 0.402344 71.6501 0.402344 68.5663V5.58358Z" fill="#F4F0FF"/>
<path opacity="0.3" fill-rule="evenodd" clip-rule="evenodd" d="M20.1997 16.9912C19.7032 16.8582 19.1929 17.1528 19.0599 17.6493L11.3525 46.4137C11.2195 46.9101 11.5141 47.4204 12.0106 47.5534L63.6966 61.4026C64.193 61.5357 64.7033 61.241 64.8363 60.7446L72.5437 31.9802C72.6768 31.4838 72.3821 30.9735 71.8857 30.8405L20.1997 16.9912ZM52.1353 41.9268C50.6277 47.5532 44.8445 50.8921 39.2182 49.3845C33.5918 47.8769 30.2529 42.0938 31.7605 36.4674C33.2681 30.8411 39.0512 27.5022 44.6776 29.0097C50.3039 30.5173 53.6429 36.3005 52.1353 41.9268Z" fill="#6D36FB"/>
<path fill-rule="evenodd" clip-rule="evenodd" d="M15.1962 23.3768C14.6823 23.3768 14.2656 23.7935 14.2656 24.3074V54.0865C14.2656 54.6005 14.6823 55.0171 15.1962 55.0171H68.7055C69.2195 55.0171 69.6361 54.6005 69.6361 54.0865V24.3074C69.6361 23.7935 69.2195 23.3768 68.7055 23.3768H15.1962ZM52.497 39.1969C52.497 45.0218 47.7751 49.7437 41.9503 49.7437C36.1255 49.7437 31.4035 45.0218 31.4035 39.1969C31.4035 33.3721 36.1255 28.6502 41.9503 28.6502C47.7751 28.6502 52.497 33.3721 52.497 39.1969ZM41.9516 44.4704C44.864 44.4704 47.225 42.1094 47.225 39.197C47.225 36.2846 44.864 33.9236 41.9516 33.9236C39.0392 33.9236 36.6782 36.2846 36.6782 39.197C36.6782 42.1094 39.0392 44.4704 41.9516 44.4704Z" fill="#6D36FB"/>
</svg>
