<svg width="41" height="41" viewBox="0 0 41 41" fill="none" xmlns="http://www.w3.org/2000/svg">
<path fill-rule="evenodd" clip-rule="evenodd" d="M6.817 6.57022C6.28353 6.42728 5.7352 6.74386 5.59226 7.27733L0.933512 24.664C0.790571 25.1975 1.10715 25.7458 1.64062 25.8887L33.5162 34.4298C34.0496 34.5727 34.598 34.2561 34.7409 33.7227L39.3997 16.336C39.5426 15.8025 39.226 15.2542 38.6926 15.1112L6.817 6.57022ZM26.6063 22.2256C25.6533 25.782 21.9977 27.8926 18.4413 26.9396C14.8849 25.9867 12.7743 22.3311 13.7273 18.7747C14.6802 15.2182 18.3358 13.1077 21.8922 14.0606C25.4487 15.0136 27.5592 18.6691 26.6063 22.2256Z" fill="#FFB8B8"/>
<path fill-rule="evenodd" clip-rule="evenodd" d="M3.66675 10.5C3.11446 10.5 2.66675 10.9477 2.66675 11.5V29.5C2.66675 30.0523 3.11446 30.5 3.66675 30.5H36.6667C37.219 30.5 37.6667 30.0523 37.6667 29.5V11.5C37.6667 10.9477 37.219 10.5 36.6667 10.5H3.66675ZM26.8334 20.5C26.8334 24.1819 23.8486 27.1667 20.1667 27.1667C16.4848 27.1667 13.5001 24.1819 13.5001 20.5C13.5001 16.8181 16.4848 13.8333 20.1667 13.8333C23.8486 13.8333 26.8334 16.8181 26.8334 20.5ZM20.1667 23.8333C22.0077 23.8333 23.5001 22.3409 23.5001 20.5C23.5001 18.6591 22.0077 17.1667 20.1667 17.1667C18.3258 17.1667 16.8334 18.6591 16.8334 20.5C16.8334 22.3409 18.3258 23.8333 20.1667 23.8333Z" fill="#FE5F5F"/>
</svg>
