<svg width="69" height="69" viewBox="0 0 69 69" fill="none" xmlns="http://www.w3.org/2000/svg">
<g id="Money">
<path id="Combined Shape Copy" opacity="0.3" fill-rule="evenodd" clip-rule="evenodd" d="M10.213 10.6382C9.67953 10.4953 9.13119 10.8119 8.98825 11.3453L0.706042 42.2549C0.5631 42.7884 0.879682 43.3367 1.41315 43.4797L56.9539 58.3618C57.4873 58.5047 58.0357 58.1881 58.1786 57.6547L66.4608 26.7451C66.6038 26.2116 66.2872 25.6633 65.7537 25.5203L10.213 10.6382ZM44.5309 37.4335C42.9109 43.4795 36.6964 47.0674 30.6505 45.4474C24.6045 43.8274 21.0166 37.6129 22.6366 31.567C24.2566 25.521 30.4711 21.9331 36.517 23.5531C42.563 25.1731 46.1509 31.3876 44.5309 37.4335Z" fill="#6D36FB"/>
<path id="Combined Shape" fill-rule="evenodd" clip-rule="evenodd" d="M4.83325 17.5C4.28097 17.5 3.83325 17.9477 3.83325 18.5V50.5C3.83325 51.0523 4.28097 51.5 4.83325 51.5H62.3333C62.8855 51.5 63.3333 51.0523 63.3333 50.5V18.5C63.3333 17.9477 62.8855 17.5 62.3333 17.5H4.83325ZM44.9166 34.5C44.9166 40.7592 39.8425 45.8333 33.5833 45.8333C27.324 45.8333 22.2499 40.7592 22.2499 34.5C22.2499 28.2408 27.324 23.1667 33.5833 23.1667C39.8425 23.1667 44.9166 28.2408 44.9166 34.5ZM33.5833 40.1667C36.7129 40.1667 39.2499 37.6296 39.2499 34.5C39.2499 31.3704 36.7129 28.8333 33.5833 28.8333C30.4536 28.8333 27.9166 31.3704 27.9166 34.5C27.9166 37.6296 30.4536 40.1667 33.5833 40.1667Z" fill="#6D36FB"/>
</g>
</svg>
