<svg width="41" height="41" viewBox="0 0 41 41" fill="none" xmlns="http://www.w3.org/2000/svg">
<path opacity="0.3" fill-rule="evenodd" clip-rule="evenodd" d="M6.81749 6.57019C6.28402 6.42725 5.73569 6.74383 5.59274 7.2773L0.934001 24.664C0.791059 25.1974 1.10764 25.7458 1.64111 25.8887L33.5167 34.4297C34.0501 34.5727 34.5985 34.2561 34.7414 33.7226L39.4001 16.336C39.5431 15.8025 39.2265 15.2542 38.693 15.1112L6.81749 6.57019ZM26.6068 22.2256C25.6538 25.782 21.9982 27.8925 18.4418 26.9396C14.8854 25.9867 12.7748 22.3311 13.7277 18.7746C14.6807 15.2182 18.3363 13.1076 21.8927 14.0606C25.4492 15.0135 27.5597 18.6691 26.6068 22.2256Z" fill="#6D36FB"/>
<path fill-rule="evenodd" clip-rule="evenodd" d="M3.66602 10.5C3.11373 10.5 2.66602 10.9477 2.66602 11.5V29.5C2.66602 30.0523 3.11373 30.5 3.66602 30.5H36.666C37.2183 30.5 37.666 30.0523 37.666 29.5V11.5C37.666 10.9477 37.2183 10.5 36.666 10.5H3.66602ZM26.8327 20.5C26.8327 24.1819 23.8479 27.1667 20.166 27.1667C16.4841 27.1667 13.4993 24.1819 13.4993 20.5C13.4993 16.8181 16.4841 13.8333 20.166 13.8333C23.8479 13.8333 26.8327 16.8181 26.8327 20.5ZM20.166 23.8333C22.007 23.8333 23.4993 22.3409 23.4993 20.5C23.4993 18.6591 22.007 17.1667 20.166 17.1667C18.3251 17.1667 16.8327 18.6591 16.8327 20.5C16.8327 22.3409 18.3251 23.8333 20.166 23.8333Z" fill="#FF2E2E"/>
</svg>
