<svg width="40" height="40" viewBox="0 0 40 40" fill="none" xmlns="http://www.w3.org/2000/svg">
  <path opacity="0.3" fill-rule="evenodd" clip-rule="evenodd" d="M6.4034 6.08809C5.87259 5.93527 5.33394 6.24585 5.20029 6.7818L0.932224 23.897C0.798574 24.4329 1.12053 24.9913 1.65134 25.1441L32.1045 33.9119C32.6353 34.0647 33.1739 33.7541 33.3076 33.2181L37.5756 16.103C37.7093 15.567 37.3873 15.0086 36.8565 14.8558L6.4034 6.08809ZM25.441 21.7838C24.5634 25.3081 21.0818 27.3665 17.6649 26.3814C14.2479 25.3963 12.1895 21.7408 13.0672 18.2165C13.9449 14.6922 17.4264 12.6337 20.8433 13.6188C24.2603 14.6039 26.3187 18.2595 25.441 21.7838Z" fill="white"/>
  <path fill-rule="evenodd" clip-rule="evenodd" d="M3.5874 10C3.03512 10 2.5874 10.4477 2.5874 11L2.5874 29C2.5874 29.5523 3.03512 30 3.5874 30L34.9207 30C35.473 30 35.9207 29.5523 35.9207 29L35.9207 11C35.9207 10.4477 35.473 10 34.9207 10L3.5874 10ZM25.6033 20C25.6033 23.6819 22.7606 26.6667 19.2541 26.6667C15.7475 26.6667 12.9049 23.6819 12.9049 20C12.9049 16.3181 15.7475 13.3333 19.2541 13.3333C22.7606 13.3333 25.6033 16.3181 25.6033 20ZM19.2541 23.3333C21.0074 23.3333 22.4287 21.8409 22.4287 20C22.4287 18.1591 21.0074 16.6667 19.2541 16.6667C17.5008 16.6667 16.0795 18.1591 16.0795 20C16.0795 21.8409 17.5008 23.3333 19.2541 23.3333Z" fill="white"/>
  </svg>
