<svg width="40" height="40" viewBox="0 0 40 40" fill="none" xmlns="http://www.w3.org/2000/svg">
<path fill-rule="evenodd" clip-rule="evenodd" d="M6.4034 6.08822C5.87259 5.93539 5.33394 6.24597 5.20029 6.78192L0.932224 23.8971C0.798574 24.4331 1.12053 24.9914 1.65134 25.1442L32.1045 33.912C32.6353 34.0648 33.1739 33.7542 33.3076 33.2183L37.5756 16.1031C37.7093 15.5671 37.3873 15.0088 36.8565 14.8559L6.4034 6.08822ZM25.441 21.7839C24.5634 25.3082 21.0818 27.3666 17.6649 26.3815C14.2479 25.3965 12.1895 21.7409 13.0672 18.2166C13.9449 14.6923 17.4264 12.6338 20.8433 13.6189C24.2603 14.604 26.3187 18.2596 25.441 21.7839Z" fill="#6D36FB"/>
<path fill-rule="evenodd" clip-rule="evenodd" d="M3.58728 10C3.035 10 2.58728 10.4477 2.58728 11L2.58728 29C2.58728 29.5523 3.03499 30 3.58728 30L34.9206 30C35.4729 30 35.9206 29.5523 35.9206 29L35.9206 11C35.9206 10.4477 35.4729 10 34.9206 10L3.58728 10ZM25.6032 20C25.6032 23.6819 22.7605 26.6667 19.2539 26.6667C15.7474 26.6667 12.9047 23.6819 12.9047 20C12.9047 16.3181 15.7474 13.3333 19.2539 13.3333C22.7605 13.3333 25.6032 16.3181 25.6032 20ZM19.2539 23.3333C21.0072 23.3333 22.4286 21.8409 22.4286 20C22.4286 18.1591 21.0072 16.6667 19.2539 16.6667C17.5007 16.6667 16.0793 18.1591 16.0793 20C16.0793 21.8409 17.5007 23.3333 19.2539 23.3333Z" fill="white"/>
</svg>
