<svg width="70" height="70" viewBox="0 0 70 70" fill="none" xmlns="http://www.w3.org/2000/svg">
  <rect width="70" height="70" rx="3" fill="url(#paint0_linear_2154_2021)"/>
  <path fill-rule="evenodd" clip-rule="evenodd" d="M46.3333 37.6666C47.4378 37.6666 48.3333 36.7712 48.3333 35.6666C48.3333 34.5621 47.4378 33.6666 46.3333 33.6666C45.2287 33.6666 44.3333 34.5621 44.3333 35.6666C44.3333 36.7712 45.2287 37.6666 46.3333 37.6666Z" fill="#6D36FB"/>
  <path fill-rule="evenodd" clip-rule="evenodd" d="M23.6667 24.3334C22.5622 24.3334 21.6667 25.2288 21.6667 26.3334V43.6667C21.6667 44.7713 22.5622 45.6667 23.6667 45.6667H46.3334C47.438 45.6667 48.3334 44.7713 48.3334 43.6667V39.8843C47.7272 40.1722 47.0491 40.3334 46.3334 40.3334C43.7561 40.3334 41.6667 38.244 41.6667 35.6667C41.6667 33.0894 43.7561 31 46.3334 31C47.0491 31 47.7272 31.1612 48.3334 31.4491V26.3334C48.3334 25.2288 47.438 24.3334 46.3334 24.3334H23.6667Z" fill="#6D36FB"/>
  <defs>
  <linearGradient id="paint0_linear_2154_2021" x1="0" y1="0" x2="70" y2="70" gradientUnits="userSpaceOnUse">
  <stop stop-color="#F3EEFF"/>
  <stop offset="1" stop-color="#F3EEFF" stop-opacity="0"/>
  </linearGradient>
  </defs>
  </svg>
