<svg width="96" height="81" viewBox="0 0 96 81" fill="none" xmlns="http://www.w3.org/2000/svg">
  <path d="M0.939453 6.87891C0.939453 3.5652 3.62574 0.878906 6.93945 0.878906H89.5594C92.8731 0.878906 95.5594 3.5652 95.5594 6.87891V74.5589C95.5594 77.8726 92.8731 80.5589 89.5594 80.5589H6.93946C3.62575 80.5589 0.939453 77.8726 0.939453 74.5589V6.87891Z" fill="#F4F0FF"/>
  <path opacity="0.3" fill-rule="evenodd" clip-rule="evenodd" d="M67.0513 29.0856C68.0185 29.5404 68.6418 30.555 68.6418 31.6747V56.4996C68.6418 57.5286 68.1145 58.4767 67.2642 58.9764L45.838 71.569C45.0291 72.0444 44.0456 72.0444 43.2367 71.569L21.8105 58.9764C20.9602 58.4767 20.4329 57.5286 20.4329 56.4996L20.4329 31.6747C20.4329 30.555 21.0562 29.5404 22.0234 29.0856L43.4496 19.0115C44.1421 18.6859 44.9326 18.6859 45.6251 19.0115L67.0513 29.0856Z" fill="#6D36FB"/>
  <path fill-rule="evenodd" clip-rule="evenodd" d="M52.4842 21.969L32.7529 33.5654V46.5659L38.1095 49.3992V36.8997L58.6119 24.8501L52.4842 21.969Z" fill="#6D36FB"/>
  </svg>
