<svg width="70" height="70" viewBox="0 0 70 70" fill="none" xmlns="http://www.w3.org/2000/svg">
  <rect width="70" height="70" rx="3" fill="url(#paint0_linear_2154_2016)"/>
  <path d="M25.6667 44.3333H45.6667C46.403 44.3333 47 44.9303 47 45.6667C47 46.403 46.403 47 45.6667 47H24.3333C23.597 47 23 46.403 23 45.6667V24.3333C23 23.597 23.597 23 24.3333 23C25.0697 23 25.6667 23.597 25.6667 24.3333V44.3333Z" fill="#6D36FB"/>
  <path d="M30.6393 38.5786C30.1357 39.1158 29.2919 39.143 28.7547 38.6394C28.2175 38.1358 28.1902 37.292 28.6939 36.7548L33.6939 31.4214C34.181 30.9019 34.9903 30.8568 35.5321 31.3191L39.4784 34.6866L44.6201 28.1738C45.0764 27.5958 45.9148 27.4972 46.4928 27.9535C47.0708 28.4098 47.1694 29.2482 46.7131 29.8262L40.7131 37.4262C40.2445 38.0198 39.3764 38.1052 38.8011 37.6143L34.769 34.1736L30.6393 38.5786Z" fill="#6D36FB"/>
  <defs>
  <linearGradient id="paint0_linear_2154_2016" x1="0" y1="0" x2="70" y2="70" gradientUnits="userSpaceOnUse">
  <stop stop-color="#F3EEFF"/>
  <stop offset="1" stop-color="#F3EEFF" stop-opacity="0"/>
  </linearGradient>
  </defs>
  </svg>
