<svg width="40" height="40" viewBox="0 0 40 40" fill="none" xmlns="http://www.w3.org/2000/svg">
<path opacity="0.3" fill-rule="evenodd" clip-rule="evenodd" d="M13.3333 6.33325C13.3333 4.6764 14.6765 3.33325 16.3333 3.33325H20.3333C21.9902 3.33325 23.3333 4.6764 23.3333 6.33325V9.99992H29.6667C30.7712 9.99992 31.6667 10.8953 31.6667 11.9999V18.3333H35.3333C36.9902 18.3333 38.3333 19.6764 38.3333 21.3333V25.3333C38.3333 26.9901 36.9902 28.3333 35.3333 28.3333H31.6667V34.6666C31.6667 35.7712 30.7712 36.6666 29.6667 36.6666H7C5.89543 36.6666 5 35.7712 5 34.6666V28.3333H10.3333C11.9902 28.3333 13.3333 26.9901 13.3333 25.3333V21.3333C13.3333 19.6764 11.9902 18.3333 10.3333 18.3333H5V11.9999C5 10.8953 5.89543 9.99992 7 9.99992H13.3333V6.33325Z" fill="#572BC9"/>
</svg>
