<svg width="40" height="40" viewBox="0 0 40 40" fill="none" xmlns="http://www.w3.org/2000/svg">
<path fill-rule="evenodd" clip-rule="evenodd" d="M20.0007 36.6667C29.2054 36.6667 36.6673 29.2047 36.6673 20C36.6673 10.7952 29.2054 3.33333 20.0007 3.33333C10.7959 3.33333 3.33398 10.7952 3.33398 20C3.33398 29.2047 10.7959 36.6667 20.0007 36.6667Z" fill="#7ACC29"/>
<path fill-rule="evenodd" clip-rule="evenodd" d="M17.6516 22.0148V24.7798H19.7516C23.9866 24.7798 27.3116 21.5248 27.3116 17.3248C27.3116 13.1248 23.9866 9.8698 19.7516 9.8698C15.5166 9.8698 12.2266 13.1248 12.2266 17.3248H15.2016C15.2016 14.6648 17.0566 12.6348 19.7516 12.6348C22.4116 12.6348 24.3366 14.6648 24.3366 17.3248C24.3366 19.9848 22.4116 22.0148 19.7516 22.0148H17.6516ZM19.3333 26.6667C18.781 26.6667 18.3333 27.1144 18.3333 27.6667V29C18.3333 29.5523 18.7811 30 19.3333 30H20.6667C21.219 30 21.6667 29.5523 21.6667 29V27.6667C21.6667 27.1144 21.2189 26.6667 20.6667 26.6667H19.3333Z" fill="#99FF33"/>
</svg>
