<svg width="40" height="40" viewBox="0 0 40 40" fill="none" xmlns="http://www.w3.org/2000/svg">
<path fill-rule="evenodd" clip-rule="evenodd" d="M20.0007 36.6666C29.2054 36.6666 36.6673 29.2047 36.6673 19.9999C36.6673 10.7952 29.2054 3.33325 20.0007 3.33325C10.7959 3.33325 3.33398 10.7952 3.33398 19.9999C3.33398 29.2047 10.7959 36.6666 20.0007 36.6666Z" fill="#BA7002"/>
<path fill-rule="evenodd" clip-rule="evenodd" d="M17.6516 22.0149V24.7799H19.7516C23.9866 24.7799 27.3116 21.5249 27.3116 17.3249C27.3116 13.1249 23.9866 9.86987 19.7516 9.86987C15.5166 9.86987 12.2266 13.1249 12.2266 17.3249H15.2016C15.2016 14.6649 17.0566 12.6349 19.7516 12.6349C22.4116 12.6349 24.3366 14.6649 24.3366 17.3249C24.3366 19.9849 22.4116 22.0149 19.7516 22.0149H17.6516ZM19.3333 26.6667C18.781 26.6667 18.3333 27.1145 18.3333 27.6667V29.0001C18.3333 29.5524 18.7811 30.0001 19.3333 30.0001H20.6667C21.219 30.0001 21.6667 29.5524 21.6667 29.0001V27.6667C21.6667 27.1145 21.2189 26.6667 20.6667 26.6667H19.3333Z" fill="#FFE2B7"/>
</svg>
