<svg width="40" height="40" viewBox="0 0 40 40" fill="none" xmlns="http://www.w3.org/2000/svg">
  <g opacity="0.01">
  <rect width="1" height="1" rx="0.5" transform="matrix(1 0 0 -1 20 20)" fill="white"/>
  </g>
  <path fill-rule="evenodd" clip-rule="evenodd" d="M13.334 9.10415C13.334 8.74132 13.7083 8.4993 14.0392 8.64819L38.2521 19.544C38.6452 19.7209 38.6452 20.279 38.2521 20.4559L14.0392 31.3517C13.7083 31.5006 13.334 31.2586 13.334 30.8958V21.9448L34.0791 20L13.334 18.0551V9.10415Z" fill="#7ACC29"/>
  <path opacity="0.3" fill-rule="evenodd" clip-rule="evenodd" d="M6.5 10C5.67157 10 5 10.6716 5 11.5V11.8333C5 12.6618 5.67157 13.3333 6.5 13.3333H8.5C9.32843 13.3333 10 12.6618 10 11.8333V11.5C10 10.6716 9.32843 10 8.5 10H6.5ZM0 19.8333C0 19.0049 0.671573 18.3333 1.5 18.3333H8.5C9.32843 18.3333 10 19.0049 10 19.8333V20.1667C10 20.9951 9.32843 21.6667 8.5 21.6667H1.5C0.671573 21.6667 0 20.9951 0 20.1667V19.8333ZM5 28.1667C5 27.3382 5.67157 26.6667 6.5 26.6667H8.5C9.32843 26.6667 10 27.3382 10 28.1667V28.5C10 29.3284 9.32843 30 8.5 30H6.5C5.67157 30 5 29.3284 5 28.5V28.1667Z" fill="#7ACC29"/>
  </svg>
