<svg width="162" height="163" viewBox="0 0 162 163" fill="none" xmlns="http://www.w3.org/2000/svg">
<path d="M139.975 22.4051C139.542 21.6987 139.764 20.7752 140.471 20.3424C141.177 19.9096 142.1 20.1314 142.533 20.8378L139.975 22.4051ZM0.113137 128.695C-0.103182 127.895 0.369748 127.071 1.16943 126.855L14.2011 123.33C15.0008 123.114 15.8244 123.587 16.0407 124.386C16.257 125.186 15.7841 126.01 14.9844 126.226L3.40072 129.359L6.53406 140.943C6.75036 141.743 6.27745 142.566 5.47775 142.783C4.67806 142.999 3.85444 142.526 3.63812 141.726L0.113137 128.695ZM142.533 20.8378C160.397 49.9937 159.055 89.5942 133.806 118.122L131.559 116.134C155.889 88.6451 157.187 50.4958 139.975 22.4051L142.533 20.8378ZM133.806 118.122C121.198 132.367 102.814 143.791 80.1132 147.364C57.4002 150.938 30.4744 146.634 0.814181 129.604L2.30801 127.002C31.4594 143.741 57.6995 147.854 79.6469 144.4C101.607 140.944 119.378 129.897 131.559 116.134L133.806 118.122Z" fill="#99FF33"/>
<path d="M35.9076 59.2417C35.9076 58.2897 36.127 57.4357 36.5656 56.6797C37.0136 55.9237 37.6156 55.3357 38.3716 54.9157C39.137 54.4864 39.9723 54.2717 40.8776 54.2717C41.9136 54.2717 42.833 54.5284 43.6356 55.0417C44.4476 55.5457 45.0356 56.2644 45.3996 57.1977H43.4816C43.2296 56.6844 42.8796 56.3017 42.4316 56.0497C41.9836 55.7977 41.4656 55.6717 40.8776 55.6717C40.2336 55.6717 39.6596 55.8164 39.1556 56.1057C38.6516 56.3951 38.255 56.8104 37.9656 57.3517C37.6856 57.8931 37.5456 58.5231 37.5456 59.2417C37.5456 59.9604 37.6856 60.5904 37.9656 61.1317C38.255 61.6731 38.6516 62.0931 39.1556 62.3917C39.6596 62.6811 40.2336 62.8257 40.8776 62.8257C41.4656 62.8257 41.9836 62.6997 42.4316 62.4477C42.8796 62.1957 43.2296 61.8131 43.4816 61.2997H45.3996C45.0356 62.2331 44.4476 62.9517 43.6356 63.4557C42.833 63.9597 41.9136 64.2117 40.8776 64.2117C39.963 64.2117 39.1276 64.0017 38.3716 63.5817C37.6156 63.1524 37.0136 62.5597 36.5656 61.8037C36.127 61.0477 35.9076 60.1937 35.9076 59.2417ZM50.6138 64.2537C49.8858 64.2537 49.2278 64.0904 48.6398 63.7637C48.0518 63.4277 47.5898 62.9611 47.2538 62.3637C46.9178 61.7571 46.7498 61.0571 46.7498 60.2637C46.7498 59.4797 46.9224 58.7844 47.2678 58.1777C47.6131 57.5711 48.0844 57.1044 48.6818 56.7777C49.2791 56.4511 49.9464 56.2877 50.6838 56.2877C51.4211 56.2877 52.0884 56.4511 52.6858 56.7777C53.2831 57.1044 53.7544 57.5711 54.0998 58.1777C54.4451 58.7844 54.6178 59.4797 54.6178 60.2637C54.6178 61.0477 54.4404 61.7431 54.0858 62.3497C53.7311 62.9564 53.2458 63.4277 52.6298 63.7637C52.0231 64.0904 51.3511 64.2537 50.6138 64.2537ZM50.6138 62.8677C51.0244 62.8677 51.4071 62.7697 51.7618 62.5737C52.1258 62.3777 52.4198 62.0837 52.6438 61.6917C52.8678 61.2997 52.9798 60.8237 52.9798 60.2637C52.9798 59.7037 52.8724 59.2324 52.6578 58.8497C52.4431 58.4577 52.1584 58.1637 51.8038 57.9677C51.4491 57.7717 51.0664 57.6737 50.6558 57.6737C50.2451 57.6737 49.8624 57.7717 49.5078 57.9677C49.1624 58.1637 48.8871 58.4577 48.6818 58.8497C48.4764 59.2324 48.3738 59.7037 48.3738 60.2637C48.3738 61.0944 48.5838 61.7384 49.0038 62.1957C49.4331 62.6437 49.9698 62.8677 50.6138 62.8677ZM60.0875 56.2877C60.6942 56.2877 61.2355 56.4137 61.7115 56.6657C62.1968 56.9177 62.5748 57.2911 62.8455 57.7857C63.1162 58.2804 63.2515 58.8777 63.2515 59.5777V64.1277H61.6695V59.8157C61.6695 59.1251 61.4968 58.5977 61.1515 58.2337C60.8062 57.8604 60.3348 57.6737 59.7375 57.6737C59.1402 57.6737 58.6642 57.8604 58.3095 58.2337C57.9642 58.5977 57.7915 59.1251 57.7915 59.8157V64.1277H56.1955V56.4137H57.7915V57.2957C58.0528 56.9784 58.3842 56.7311 58.7855 56.5537C59.1962 56.3764 59.6302 56.2877 60.0875 56.2877ZM69.2773 56.2877C69.8653 56.2877 70.388 56.4137 70.8453 56.6657C71.312 56.9177 71.676 57.2911 71.9373 57.7857C72.208 58.2804 72.3433 58.8777 72.3433 59.5777V64.1277H70.7613V59.8157C70.7613 59.1251 70.5886 58.5977 70.2433 58.2337C69.898 57.8604 69.4266 57.6737 68.8293 57.6737C68.232 57.6737 67.756 57.8604 67.4013 58.2337C67.056 58.5977 66.8833 59.1251 66.8833 59.8157V64.1277H65.2873V53.7677H66.8833V57.3097C67.154 56.9831 67.4946 56.7311 67.9053 56.5537C68.3253 56.3764 68.7826 56.2877 69.2773 56.2877ZM81.4491 60.0817C81.4491 60.3711 81.4304 60.6324 81.3931 60.8657H75.4991C75.5458 61.4817 75.7744 61.9764 76.1851 62.3497C76.5958 62.7231 77.0998 62.9097 77.6971 62.9097C78.5558 62.9097 79.1624 62.5504 79.5171 61.8317H81.2391C81.0058 62.5411 80.5811 63.1244 79.9651 63.5817C79.3584 64.0297 78.6024 64.2537 77.6971 64.2537C76.9598 64.2537 76.2971 64.0904 75.7091 63.7637C75.1304 63.4277 74.6731 62.9611 74.3371 62.3637C74.0104 61.7571 73.8471 61.0571 73.8471 60.2637C73.8471 59.4704 74.0058 58.7751 74.3231 58.1777C74.6498 57.5711 75.1024 57.1044 75.6811 56.7777C76.2691 56.4511 76.9411 56.2877 77.6971 56.2877C78.4251 56.2877 79.0738 56.4464 79.6431 56.7637C80.2124 57.0811 80.6558 57.5291 80.9731 58.1077C81.2904 58.6771 81.4491 59.3351 81.4491 60.0817ZM79.7831 59.5777C79.7738 58.9897 79.5638 58.5184 79.1531 58.1637C78.7424 57.8091 78.2338 57.6317 77.6271 57.6317C77.0764 57.6317 76.6051 57.8091 76.2131 58.1637C75.8211 58.5091 75.5878 58.9804 75.5131 59.5777H79.7831ZM86.2677 62.9097C87.1917 62.9097 87.8031 62.5037 88.1017 61.6917H89.8237C89.6184 62.4011 89.2497 62.9844 88.7177 63.4417C88.1951 63.8897 87.5371 64.1511 86.7437 64.2257V64.7997C87.2851 64.7997 87.7237 64.9257 88.0597 65.1777C88.3957 65.4391 88.5637 65.8031 88.5637 66.2697C88.5637 66.7364 88.3957 67.1051 88.0597 67.3757C87.7237 67.6557 87.2991 67.7957 86.7857 67.7957H84.9377V66.7877H86.4637C86.7251 66.7877 86.9211 66.7504 87.0517 66.6757C87.1824 66.6011 87.2477 66.4657 87.2477 66.2697C87.2477 66.0737 87.1824 65.9384 87.0517 65.8637C86.9211 65.7891 86.7251 65.7517 86.4637 65.7517H85.6937V64.2117C85.0591 64.1371 84.4991 63.9271 84.0137 63.5817C83.5284 63.2271 83.1504 62.7697 82.8797 62.2097C82.6184 61.6404 82.4877 60.9917 82.4877 60.2637C82.4877 59.4704 82.6464 58.7751 82.9637 58.1777C83.2904 57.5711 83.7384 57.1044 84.3077 56.7777C84.8771 56.4511 85.5304 56.2877 86.2677 56.2877C87.2011 56.2877 87.9711 56.5117 88.5777 56.9597C89.1937 57.3984 89.6091 58.0284 89.8237 58.8497H88.1017C87.9617 58.4671 87.7377 58.1684 87.4297 57.9537C87.1217 57.7391 86.7344 57.6317 86.2677 57.6317C85.6144 57.6317 85.0917 57.8651 84.6997 58.3317C84.3171 58.7891 84.1257 59.4331 84.1257 60.2637C84.1257 61.0944 84.3171 61.7431 84.6997 62.2097C85.0917 62.6764 85.6144 62.9097 86.2677 62.9097ZM90.8823 60.2357C90.8823 59.4611 91.0409 58.7751 91.3583 58.1777C91.6849 57.5804 92.1236 57.1184 92.6743 56.7917C93.2343 56.4557 93.8503 56.2877 94.5223 56.2877C95.1289 56.2877 95.6563 56.4091 96.1043 56.6517C96.5616 56.8851 96.9256 57.1791 97.1963 57.5337V56.4137H98.8063V64.1277H97.1963V62.9797C96.9256 63.3437 96.5569 63.6471 96.0903 63.8897C95.6236 64.1324 95.0916 64.2537 94.4943 64.2537C93.8316 64.2537 93.2249 64.0857 92.6743 63.7497C92.1236 63.4044 91.6849 62.9284 91.3583 62.3217C91.0409 61.7057 90.8823 61.0104 90.8823 60.2357ZM97.1963 60.2637C97.1963 59.7317 97.0843 59.2697 96.8603 58.8777C96.6456 58.4857 96.3609 58.1871 96.0063 57.9817C95.6516 57.7764 95.2689 57.6737 94.8583 57.6737C94.4476 57.6737 94.0649 57.7764 93.7103 57.9817C93.3556 58.1777 93.0663 58.4717 92.8423 58.8637C92.6276 59.2464 92.5203 59.7037 92.5203 60.2357C92.5203 60.7677 92.6276 61.2344 92.8423 61.6357C93.0663 62.0371 93.3556 62.3451 93.7103 62.5597C94.0743 62.7651 94.4569 62.8677 94.8583 62.8677C95.2689 62.8677 95.6516 62.7651 96.0063 62.5597C96.3609 62.3544 96.6456 62.0557 96.8603 61.6637C97.0843 61.2624 97.1963 60.7957 97.1963 60.2637ZM104.007 60.2357C104.007 59.4611 104.166 58.7751 104.483 58.1777C104.81 57.5804 105.249 57.1184 105.799 56.7917C106.359 56.4557 106.975 56.2877 107.647 56.2877C108.254 56.2877 108.781 56.4091 109.229 56.6517C109.687 56.8851 110.051 57.1791 110.321 57.5337V56.4137H111.931V64.1277H110.321V62.9797C110.051 63.3437 109.682 63.6471 109.215 63.8897C108.749 64.1324 108.217 64.2537 107.619 64.2537C106.957 64.2537 106.35 64.0857 105.799 63.7497C105.249 63.4044 104.81 62.9284 104.483 62.3217C104.166 61.7057 104.007 61.0104 104.007 60.2357ZM110.321 60.2637C110.321 59.7317 110.209 59.2697 109.985 58.8777C109.771 58.4857 109.486 58.1871 109.131 57.9817C108.777 57.7764 108.394 57.6737 107.983 57.6737C107.573 57.6737 107.19 57.7764 106.835 57.9817C106.481 58.1777 106.191 58.4717 105.967 58.8637C105.753 59.2464 105.645 59.7037 105.645 60.2357C105.645 60.7677 105.753 61.2344 105.967 61.6357C106.191 62.0371 106.481 62.3451 106.835 62.5597C107.199 62.7651 107.582 62.8677 107.983 62.8677C108.394 62.8677 108.777 62.7651 109.131 62.5597C109.486 62.3544 109.771 62.0557 109.985 61.6637C110.209 61.2624 110.321 60.7957 110.321 60.2637ZM26.9367 81.1297C27.4594 81.2231 27.9027 81.4984 28.2667 81.9557C28.6307 82.4131 28.8127 82.9311 28.8127 83.5097C28.8127 84.0044 28.682 84.4524 28.4207 84.8537C28.1687 85.2457 27.8 85.5584 27.3147 85.7917C26.8294 86.0157 26.2647 86.1277 25.6207 86.1277H21.7287V76.3977H25.4387C26.1014 76.3977 26.6707 76.5097 27.1467 76.7337C27.6227 76.9577 27.982 77.2611 28.2247 77.6437C28.4674 78.0171 28.5887 78.4371 28.5887 78.9037C28.5887 79.4637 28.4394 79.9304 28.1407 80.3037C27.842 80.6771 27.4407 80.9524 26.9367 81.1297ZM23.3247 80.4857H25.2987C25.8214 80.4857 26.2274 80.3691 26.5167 80.1357C26.8154 79.8931 26.9647 79.5477 26.9647 79.0997C26.9647 78.6611 26.8154 78.3204 26.5167 78.0777C26.2274 77.8257 25.8214 77.6997 25.2987 77.6997H23.3247V80.4857ZM25.4807 84.8257C26.022 84.8257 26.4467 84.6951 26.7547 84.4337C27.0627 84.1724 27.2167 83.8084 27.2167 83.3417C27.2167 82.8657 27.0534 82.4877 26.7267 82.2077C26.4 81.9277 25.966 81.7877 25.4247 81.7877H23.3247V84.8257H25.4807ZM32.1431 79.5337C32.3764 79.1417 32.6844 78.8384 33.0671 78.6237C33.4591 78.3997 33.9211 78.2877 34.4531 78.2877V79.9397H34.0471C33.4217 79.9397 32.9457 80.0984 32.6191 80.4157C32.3017 80.7331 32.1431 81.2837 32.1431 82.0677V86.1277H30.5471V78.4137H32.1431V79.5337ZM35.3881 82.2357C35.3881 81.4611 35.5468 80.7751 35.8641 80.1777C36.1908 79.5804 36.6295 79.1184 37.1801 78.7917C37.7401 78.4557 38.3561 78.2877 39.0281 78.2877C39.6348 78.2877 40.1621 78.4091 40.6101 78.6517C41.0675 78.8851 41.4315 79.1791 41.7021 79.5337V78.4137H43.3121V86.1277H41.7021V84.9797C41.4315 85.3437 41.0628 85.6471 40.5961 85.8897C40.1295 86.1324 39.5975 86.2537 39.0001 86.2537C38.3375 86.2537 37.7308 86.0857 37.1801 85.7497C36.6295 85.4044 36.1908 84.9284 35.8641 84.3217C35.5468 83.7057 35.3881 83.0104 35.3881 82.2357ZM41.7021 82.2637C41.7021 81.7317 41.5901 81.2697 41.3661 80.8777C41.1515 80.4857 40.8668 80.1871 40.5121 79.9817C40.1575 79.7764 39.7748 79.6737 39.3641 79.6737C38.9535 79.6737 38.5708 79.7764 38.2161 79.9817C37.8615 80.1777 37.5721 80.4717 37.3481 80.8637C37.1335 81.2464 37.0261 81.7037 37.0261 82.2357C37.0261 82.7677 37.1335 83.2344 37.3481 83.6357C37.5721 84.0371 37.8615 84.3451 38.2161 84.5597C38.5801 84.7651 38.9628 84.8677 39.3641 84.8677C39.7748 84.8677 40.1575 84.7651 40.5121 84.5597C40.8668 84.3544 41.1515 84.0557 41.3661 83.6637C41.5901 83.2624 41.7021 82.7957 41.7021 82.2637ZM46.2204 77.3917C45.9311 77.3917 45.6884 77.2937 45.4924 77.0977C45.2964 76.9017 45.1984 76.6591 45.1984 76.3697C45.1984 76.0804 45.2964 75.8377 45.4924 75.6417C45.6884 75.4457 45.9311 75.3477 46.2204 75.3477C46.5004 75.3477 46.7384 75.4457 46.9344 75.6417C47.1304 75.8377 47.2284 76.0804 47.2284 76.3697C47.2284 76.6591 47.1304 76.9017 46.9344 77.0977C46.7384 77.2937 46.5004 77.3917 46.2204 77.3917ZM47.0044 78.4137V86.1277H45.4084V78.4137H47.0044ZM50.6958 79.5477C50.9665 79.1931 51.3351 78.8944 51.8018 78.6517C52.2685 78.4091 52.7958 78.2877 53.3838 78.2877C54.0558 78.2877 54.6671 78.4557 55.2178 78.7917C55.7778 79.1184 56.2165 79.5804 56.5338 80.1777C56.8511 80.7751 57.0098 81.4611 57.0098 82.2357C57.0098 83.0104 56.8511 83.7057 56.5338 84.3217C56.2165 84.9284 55.7778 85.4044 55.2178 85.7497C54.6671 86.0857 54.0558 86.2537 53.3838 86.2537C52.7958 86.2537 52.2731 86.1371 51.8158 85.9037C51.3585 85.6611 50.9851 85.3624 50.6958 85.0077V89.7957H49.0998V78.4137H50.6958V79.5477ZM55.3858 82.2357C55.3858 81.7037 55.2738 81.2464 55.0498 80.8637C54.8351 80.4717 54.5458 80.1777 54.1818 79.9817C53.8271 79.7764 53.4445 79.6737 53.0338 79.6737C52.6325 79.6737 52.2498 79.7764 51.8858 79.9817C51.5311 80.1871 51.2418 80.4857 51.0178 80.8777C50.8031 81.2697 50.6958 81.7317 50.6958 82.2637C50.6958 82.7957 50.8031 83.2624 51.0178 83.6637C51.2418 84.0557 51.5311 84.3544 51.8858 84.5597C52.2498 84.7651 52.6325 84.8677 53.0338 84.8677C53.4445 84.8677 53.8271 84.7651 54.1818 84.5597C54.5458 84.3451 54.8351 84.0371 55.0498 83.6357C55.2738 83.2344 55.3858 82.7677 55.3858 82.2357ZM72.4728 76.3977V86.1277H70.8768V79.4637L67.9088 86.1277H66.8028L63.8208 79.4637V86.1277H62.2248V76.3977H63.9468L67.3628 84.0277L70.7648 76.3977H72.4728ZM81.6405 82.0817C81.6405 82.3711 81.6218 82.6324 81.5845 82.8657H75.6905C75.7372 83.4817 75.9658 83.9764 76.3765 84.3497C76.7872 84.7231 77.2912 84.9097 77.8885 84.9097C78.7472 84.9097 79.3538 84.5504 79.7085 83.8317H81.4305C81.1972 84.5411 80.7725 85.1244 80.1565 85.5817C79.5498 86.0297 78.7938 86.2537 77.8885 86.2537C77.1512 86.2537 76.4885 86.0904 75.9005 85.7637C75.3218 85.4277 74.8645 84.9611 74.5285 84.3637C74.2018 83.7571 74.0385 83.0571 74.0385 82.2637C74.0385 81.4704 74.1972 80.7751 74.5145 80.1777C74.8412 79.5711 75.2938 79.1044 75.8725 78.7777C76.4605 78.4511 77.1325 78.2877 77.8885 78.2877C78.6165 78.2877 79.2652 78.4464 79.8345 78.7637C80.4038 79.0811 80.8472 79.5291 81.1645 80.1077C81.4818 80.6771 81.6405 81.3351 81.6405 82.0817ZM79.9745 81.5777C79.9652 80.9897 79.7552 80.5184 79.3445 80.1637C78.9338 79.8091 78.4252 79.6317 77.8185 79.6317C77.2678 79.6317 76.7965 79.8091 76.4045 80.1637C76.0125 80.5091 75.7792 80.9804 75.7045 81.5777H79.9745ZM92.5491 78.2877C93.1558 78.2877 93.6971 78.4137 94.1731 78.6657C94.6585 78.9177 95.0365 79.2911 95.3071 79.7857C95.5871 80.2804 95.7271 80.8777 95.7271 81.5777V86.1277H94.1451V81.8157C94.1451 81.1251 93.9725 80.5977 93.6271 80.2337C93.2818 79.8604 92.8105 79.6737 92.2131 79.6737C91.6158 79.6737 91.1398 79.8604 90.7851 80.2337C90.4398 80.5977 90.2671 81.1251 90.2671 81.8157V86.1277H88.6851V81.8157C88.6851 81.1251 88.5125 80.5977 88.1671 80.2337C87.8218 79.8604 87.3505 79.6737 86.7531 79.6737C86.1558 79.6737 85.6798 79.8604 85.3251 80.2337C84.9798 80.5977 84.8071 81.1251 84.8071 81.8157V86.1277H83.2111V78.4137H84.8071V79.2957C85.0685 78.9784 85.3998 78.7311 85.8011 78.5537C86.2025 78.3764 86.6318 78.2877 87.0891 78.2877C87.7051 78.2877 88.2558 78.4184 88.7411 78.6797C89.2265 78.9411 89.5998 79.3191 89.8611 79.8137C90.0945 79.3471 90.4585 78.9784 90.9531 78.7077C91.4478 78.4277 91.9798 78.2877 92.5491 78.2877ZM99.354 79.5617C99.6247 79.1884 99.9933 78.8851 100.46 78.6517C100.936 78.4091 101.463 78.2877 102.042 78.2877C102.723 78.2877 103.339 78.4511 103.89 78.7777C104.441 79.1044 104.875 79.5711 105.192 80.1777C105.509 80.7751 105.668 81.4611 105.668 82.2357C105.668 83.0104 105.509 83.7057 105.192 84.3217C104.875 84.9284 104.436 85.4044 103.876 85.7497C103.325 86.0857 102.714 86.2537 102.042 86.2537C101.445 86.2537 100.913 86.1371 100.446 85.9037C99.9887 85.6704 99.6247 85.3717 99.354 85.0077V86.1277H97.758V75.7677H99.354V79.5617ZM104.044 82.2357C104.044 81.7037 103.932 81.2464 103.708 80.8637C103.493 80.4717 103.204 80.1777 102.84 79.9817C102.485 79.7764 102.103 79.6737 101.692 79.6737C101.291 79.6737 100.908 79.7764 100.544 79.9817C100.189 80.1871 99.9 80.4857 99.676 80.8777C99.4613 81.2697 99.354 81.7317 99.354 82.2637C99.354 82.7957 99.4613 83.2624 99.676 83.6637C99.9 84.0557 100.189 84.3544 100.544 84.5597C100.908 84.7651 101.291 84.8677 101.692 84.8677C102.103 84.8677 102.485 84.7651 102.84 84.5597C103.204 84.3451 103.493 84.0371 103.708 83.6357C103.932 83.2344 104.044 82.7677 104.044 82.2357ZM114.316 82.0817C114.316 82.3711 114.298 82.6324 114.26 82.8657H108.366C108.413 83.4817 108.642 83.9764 109.052 84.3497C109.463 84.7231 109.967 84.9097 110.564 84.9097C111.423 84.9097 112.03 84.5504 112.384 83.8317H114.106C113.873 84.5411 113.448 85.1244 112.832 85.5817C112.226 86.0297 111.47 86.2537 110.564 86.2537C109.827 86.2537 109.164 86.0904 108.576 85.7637C107.998 85.4277 107.54 84.9611 107.204 84.3637C106.878 83.7571 106.714 83.0571 106.714 82.2637C106.714 81.4704 106.873 80.7751 107.19 80.1777C107.517 79.5711 107.97 79.1044 108.548 78.7777C109.136 78.4511 109.808 78.2877 110.564 78.2877C111.292 78.2877 111.941 78.4464 112.51 78.7637C113.08 79.0811 113.523 79.5291 113.84 80.1077C114.158 80.6771 114.316 81.3351 114.316 82.0817ZM112.65 81.5777C112.641 80.9897 112.431 80.5184 112.02 80.1637C111.61 79.8091 111.101 79.6317 110.494 79.6317C109.944 79.6317 109.472 79.8091 109.08 80.1637C108.688 80.5091 108.455 80.9804 108.38 81.5777H112.65ZM117.483 79.5337C117.716 79.1417 118.024 78.8384 118.407 78.6237C118.799 78.3997 119.261 78.2877 119.793 78.2877V79.9397H119.387C118.762 79.9397 118.286 80.0984 117.959 80.4157C117.642 80.7331 117.483 81.2837 117.483 82.0677V86.1277H115.887V78.4137H117.483V79.5337ZM124.06 86.2537C123.453 86.2537 122.907 86.1464 122.422 85.9317C121.946 85.7077 121.568 85.4091 121.288 85.0357C121.008 84.6531 120.859 84.2284 120.84 83.7617H122.492C122.52 84.0884 122.674 84.3637 122.954 84.5877C123.243 84.8024 123.603 84.9097 124.032 84.9097C124.48 84.9097 124.825 84.8257 125.068 84.6577C125.32 84.4804 125.446 84.2564 125.446 83.9857C125.446 83.6964 125.306 83.4817 125.026 83.3417C124.755 83.2017 124.321 83.0477 123.724 82.8797C123.145 82.7211 122.674 82.5671 122.31 82.4177C121.946 82.2684 121.629 82.0397 121.358 81.7317C121.097 81.4237 120.966 81.0177 120.966 80.5137C120.966 80.1031 121.087 79.7297 121.33 79.3937C121.573 79.0484 121.918 78.7777 122.366 78.5817C122.823 78.3857 123.346 78.2877 123.934 78.2877C124.811 78.2877 125.516 78.5117 126.048 78.9597C126.589 79.3984 126.879 80.0004 126.916 80.7657H125.32C125.292 80.4204 125.152 80.1451 124.9 79.9397C124.648 79.7344 124.307 79.6317 123.878 79.6317C123.458 79.6317 123.136 79.7111 122.912 79.8697C122.688 80.0284 122.576 80.2384 122.576 80.4997C122.576 80.7051 122.651 80.8777 122.8 81.0177C122.949 81.1577 123.131 81.2697 123.346 81.3537C123.561 81.4284 123.878 81.5264 124.298 81.6477C124.858 81.7971 125.315 81.9511 125.67 82.1097C126.034 82.2591 126.347 82.4831 126.608 82.7817C126.869 83.0804 127.005 83.4771 127.014 83.9717C127.014 84.4104 126.893 84.8024 126.65 85.1477C126.407 85.4931 126.062 85.7637 125.614 85.9597C125.175 86.1557 124.657 86.2537 124.06 86.2537Z" fill="#EBEBFA"/>
</svg>
