<svg width="39" height="40" viewBox="0 0 39 40" fill="none" xmlns="http://www.w3.org/2000/svg">
<path fill-rule="evenodd" clip-rule="evenodd" d="M25.659 6.66668C25.034 8.68741 22.3116 10.2083 19.048 10.2083C15.7843 10.2083 13.0619 8.68741 12.4369 6.66668L11.3688 6.66668C11.0642 6.39217 10.6094 6.33785 10.2342 6.56527L10.0669 6.66668L9.7305 6.66668C9.2475 6.66668 8.84447 7.00911 8.75096 7.46445L1.72059 11.7264C1.24831 12.0127 1.08117 12.6371 1.34728 13.1211L4.5999 19.0364C4.866 19.5204 5.46458 19.6806 5.93686 19.3943L8.7305 17.7008L8.7305 34C8.7305 34.5523 9.17822 35 9.7305 35L28.3654 35C28.9177 35 29.3654 34.5523 29.3654 34L29.3654 17.6998L32.1606 19.3943C32.6329 19.6806 33.2315 19.5204 33.4976 19.0364L36.7502 13.1211C37.0163 12.6371 36.8492 12.0127 36.3769 11.7264L29.3447 7.46338C29.2508 7.00858 28.848 6.66668 28.3654 6.66668L28.0305 6.66668L27.8632 6.56527C27.4881 6.33785 27.0333 6.39217 26.7287 6.66668L25.659 6.66668Z" fill="#F4F0FF"/>
</svg>
