<svg width="40" height="41" viewBox="0 0 40 41" fill="none" xmlns="http://www.w3.org/2000/svg">
<path opacity="0.3" fill-rule="evenodd" clip-rule="evenodd" d="M9.21738 7.94753C9.47668 6.55458 10.6985 5.5 12.1666 5.5H27.8333C29.301 5.5 30.5226 6.55405 30.7823 7.94648L38.2272 12.2448C38.7055 12.5209 38.8693 13.1325 38.5932 13.6108L35.1661 19.5467C34.89 20.025 34.2784 20.1888 33.8001 19.9127L30.8333 18.1998V32.8333C30.8333 33.3856 30.3856 33.8333 29.8333 33.8333H10.1666C9.61433 33.8333 9.16661 33.3856 9.16661 32.8333V18.2008L6.20142 19.9127C5.72313 20.1888 5.11154 20.025 4.83539 19.5467L1.40831 13.6108C1.13217 13.1325 1.29604 12.5209 1.77434 12.2448L9.21738 7.94753Z" fill="#FE5F5F"/>
<path fill-rule="evenodd" clip-rule="evenodd" d="M16.9344 5.5C16.7672 5.5 16.6111 5.58355 16.5183 5.72265L15.2625 7.60645C15.1153 7.82724 15.1662 8.12458 15.3785 8.2838L18.3334 10.5L16.7021 21.9192C16.6799 22.075 16.7323 22.2322 16.8435 22.3434L19.6465 25.1464C19.8418 25.3417 20.1584 25.3417 20.3537 25.1464L23.1567 22.3434C23.2679 22.2322 23.3203 22.075 23.2981 21.9192L21.6668 10.5L24.6217 8.2838C24.834 8.12458 24.8849 7.82724 24.7377 7.60645L23.4819 5.72265C23.3891 5.58355 23.233 5.5 23.0658 5.5H16.9344Z" fill="#FE5F5F"/>
</svg>
