<svg width="77" height="65" viewBox="0 0 77 65" fill="none" xmlns="http://www.w3.org/2000/svg">
<path d="M0.931641 5.67433C0.931641 2.80112 3.26084 0.471924 6.13405 0.471924H71.2914C74.1646 0.471924 76.4938 2.80112 76.4938 5.67433V58.9008C76.4938 61.774 74.1646 64.1032 71.2914 64.1032H6.13404C3.26083 64.1032 0.931641 61.774 0.931641 58.9008V5.67433Z" fill="#F4F0FF"/>
<path d="M0.931641 5.67433C0.931641 2.80112 3.26084 0.471924 6.13405 0.471924H71.2914C74.1646 0.471924 76.4938 2.80112 76.4938 5.67433V58.9008C76.4938 61.774 74.1646 64.1032 71.2914 64.1032H6.13404C3.26083 64.1032 0.931641 61.774 0.931641 58.9008V5.67433Z" fill="#F4F0FF"/>
<path fill-rule="evenodd" clip-rule="evenodd" d="M20.8298 17.7514C20.9739 17.3351 21.4587 17.1592 21.8243 17.4048C23.5516 18.5654 27.9174 21.791 29.3786 25.6266C30.7367 29.1915 34.6038 34.8639 36.5297 37.5819C37.1886 38.5117 38.381 38.8764 39.4566 38.4999L45.468 36.3959C45.7477 36.298 46.058 36.3498 46.2908 36.5331L56.1343 44.2849C56.4358 44.5223 56.3029 45.0054 55.9225 45.0553L37.045 47.533C35.7278 47.7059 34.429 47.113 33.6887 46.0098C31.7787 43.1632 28.1154 37.7959 26.6222 36.2387C25.3053 34.8654 23.4113 33.0581 21.6847 31.4481C19.1307 29.0667 18.1777 25.4093 19.3204 22.1096L20.8298 17.7514Z" fill="#6D36FB"/>
<path opacity="0.3" fill-rule="evenodd" clip-rule="evenodd" d="M19.2715 27.5558C19.2715 27.5558 21.1091 37.2032 21.1091 40.0974C21.1091 42.9916 21.1091 47.8154 21.1091 47.8154H23.8655C23.8655 47.8154 23.8655 40.0974 23.8655 37.6856C23.8655 35.2737 26.6219 36.2385 26.6219 36.2385L19.2715 27.5558Z" fill="#6D36FB"/>
</svg>
