<svg width="33" height="33" viewBox="0 0 33 33" fill="none" xmlns="http://www.w3.org/2000/svg">
  <path opacity="0.3" fill-rule="evenodd" clip-rule="evenodd" d="M5.47191 5.53299C4.93844 5.39005 4.3901 5.70663 4.24716 6.2401L0.623696 19.7631C0.480754 20.2965 0.797336 20.8449 1.3308 20.9878L26.4449 27.7171C26.9783 27.86 27.5267 27.5435 27.6696 27.01L31.2931 13.487C31.436 12.9536 31.1194 12.4052 30.586 12.2623L5.47191 5.53299ZM21.1101 18.0055C20.3478 20.8507 17.4233 22.5391 14.5782 21.7768C11.733 21.0144 10.0446 18.0899 10.8069 15.2448C11.5693 12.3996 14.4937 10.7112 17.3389 11.4735C20.1841 12.2359 21.8725 15.1604 21.1101 18.0055Z" fill="#6D36FB"/>
  <path fill-rule="evenodd" clip-rule="evenodd" d="M2.95837 8.625C2.40609 8.625 1.95837 9.07272 1.95837 9.625V23.625C1.95837 24.1773 2.40609 24.625 2.95837 24.625H28.9584C29.5107 24.625 29.9584 24.1773 29.9584 23.625V9.625C29.9584 9.07272 29.5107 8.625 28.9584 8.625H2.95837ZM21.2917 16.625C21.2917 19.5705 18.9039 21.9583 15.9584 21.9583C13.0129 21.9583 10.625 19.5705 10.625 16.625C10.625 13.6795 13.0129 11.2917 15.9584 11.2917C18.9039 11.2917 21.2917 13.6795 21.2917 16.625ZM15.9584 19.2917C17.4311 19.2917 18.625 18.0978 18.625 16.625C18.625 15.1522 17.4311 13.9583 15.9584 13.9583C14.4856 13.9583 13.2917 15.1522 13.2917 16.625C13.2917 18.0978 14.4856 19.2917 15.9584 19.2917Z" fill="#6D36FB"/>
  </svg>
