<svg width="39" height="40" viewBox="0 0 39 40" fill="none" xmlns="http://www.w3.org/2000/svg">
<path fill-rule="evenodd" clip-rule="evenodd" d="M15.8204 34.1213L5.59166 23.3811C4.4854 22.2126 4.4854 20.3254 5.59166 19.1569L18.433 5.9008C18.9666 5.34995 19.685 5.04126 20.4333 5.04126L30.6785 5.04126C32.2543 5.04126 33.5317 6.38256 33.5317 8.03713L33.5317 18.7638C33.5317 19.5677 33.224 20.3379 32.6777 20.9012L19.8577 34.1213C19.3225 34.6839 18.5963 35 17.8391 35C17.0818 35 16.3556 34.6839 15.8204 34.1213ZM29.7274 12.0317C29.7274 13.6862 28.45 15.0275 26.8742 15.0275C25.2984 15.0275 24.021 13.6862 24.021 12.0317C24.021 10.3771 25.2984 9.03578 26.8742 9.03578C28.45 9.03578 29.7274 10.3771 29.7274 12.0317Z" fill="#572BC9"/>
</svg>
