<svg width="41" height="40" viewBox="0 0 41 40" fill="none" xmlns="http://www.w3.org/2000/svg">
  <g opacity="0.01">
  <rect width="1" height="1" rx="0.5" transform="matrix(1 0 0 -1 20 20)" fill="white"/>
  </g>
  <path fill-rule="evenodd" clip-rule="evenodd" d="M26.0004 34.1896C26.0004 34.9316 26.9628 35.223 27.3745 34.6056L38.5564 17.8327C38.8887 17.3343 38.5314 16.6667 37.9324 16.6667H29.3338V5.81042C29.3338 5.06836 28.3713 4.77697 27.9597 5.39439L16.7778 22.1673C16.4455 22.6657 16.8028 23.3333 17.4018 23.3333H26.0004V34.1896Z" fill="#C22199"/>
  <path fill-rule="evenodd" clip-rule="evenodd" d="M5.99935 9.83333C5.99935 9.0049 6.67092 8.33333 7.49935 8.33333H17.8327C18.6611 8.33333 19.3327 9.0049 19.3327 9.83333V11.8333C19.3327 12.6618 18.6611 13.3333 17.8327 13.3333H7.49935C6.67092 13.3333 5.99935 12.6618 5.99935 11.8333V9.83333ZM5.99935 29.8333C5.99935 29.0049 6.67092 28.3333 7.49935 28.3333H17.8327C18.6611 28.3333 19.3327 29.0049 19.3327 29.8333V31.8333C19.3327 32.6618 18.6611 33.3333 17.8327 33.3333H7.49935C6.67092 33.3333 5.99935 32.6618 5.99935 31.8333V29.8333ZM4.16602 18.3333C3.33759 18.3333 2.66602 19.0049 2.66602 19.8333V21.8333C2.66602 22.6618 3.33759 23.3333 4.16602 23.3333H12.8327C13.6611 23.3333 14.3327 22.6618 14.3327 21.8333V19.8333C14.3327 19.0049 13.6611 18.3333 12.8327 18.3333H4.16602Z" fill="#C22199"/>
  </svg>
