<svg width="40" height="40" viewBox="0 0 40 40" fill="none" xmlns="http://www.w3.org/2000/svg">
<path opacity="0.3" fill-rule="evenodd" clip-rule="evenodd" d="M3.33398 33.5001C3.33398 34.3285 4.00556 35.0001 4.83398 35.0001H35.1673C35.9957 35.0001 36.6673 34.3285 36.6673 33.5001V13.1667C36.6673 12.3383 35.9957 11.6667 35.1673 11.6667H16.6673L12.1067 7.10609C11.8254 6.82478 11.4438 6.66675 11.046 6.66675H4.83398C4.00556 6.66675 3.33398 7.33832 3.33398 8.16675V33.5001Z" fill="#7ACC29"/>
<path fill-rule="evenodd" clip-rule="evenodd" d="M13.1163 23.3179C12.8248 23.6392 13.0528 24.1538 13.4866 24.1538H17.7775V27.8333C17.7775 28.1094 18.0013 28.3333 18.2775 28.3333H20.8905C21.1667 28.3333 21.3905 28.1094 21.3905 27.8333V24.1538H25.6814C26.1152 24.1538 26.3432 23.6392 26.0518 23.3179L19.9543 16.5963C19.7559 16.3775 19.4121 16.3775 19.2137 16.5963L13.1163 23.3179Z" fill="#3D6614"/>
</svg>
