<svg width="33" height="33" viewBox="0 0 33 33" fill="none" xmlns="http://www.w3.org/2000/svg">
  <path opacity="0.3" fill-rule="evenodd" clip-rule="evenodd" d="M7.29175 9.95833C7.29175 12.9039 9.67956 15.2917 12.6251 15.2917C15.5706 15.2917 17.9584 12.9039 17.9584 9.95833C17.9584 7.01281 15.5706 4.625 12.6251 4.625C9.67956 4.625 7.29175 7.01281 7.29175 9.95833ZM20.6251 15.2917C20.6251 17.5008 22.4159 19.2917 24.6251 19.2917C26.8342 19.2917 28.6251 17.5008 28.6251 15.2917C28.6251 13.0825 26.8342 11.2917 24.6251 11.2917C22.4159 11.2917 20.6251 13.0825 20.6251 15.2917Z" fill="#6D36FB"/>
  <path fill-rule="evenodd" clip-rule="evenodd" d="M12.6028 17.9583C6.30755 17.9583 1.14268 21.1936 0.625869 27.5572C0.597718 27.9038 1.26062 28.6249 1.595 28.6249H23.6206C24.6222 28.6249 24.6378 27.8189 24.6222 27.5583C24.2315 21.0158 18.9866 17.9583 12.6028 17.9583ZM31.8996 28.6249H26.7583C26.7583 25.6237 25.7667 22.854 24.0932 20.6257C28.6353 20.6754 32.3439 22.9718 32.623 27.8249C32.6342 28.0204 32.623 28.6249 31.8996 28.6249Z" fill="#6D36FB"/>
  </svg>
