<svg width="40" height="41" viewBox="0 0 40 41" fill="none" xmlns="http://www.w3.org/2000/svg">
<g opacity="0.01">
<rect width="1" height="1" rx="0.5" transform="matrix(1 0 0 -1 20 21)" fill="white"/>
</g>
<path fill-rule="evenodd" clip-rule="evenodd" d="M31.9878 14.7979L20.2027 3.01278C18.901 1.71104 16.7904 1.71104 15.4887 3.01278L3.70357 14.7979C1.10007 17.4014 1.10007 21.6225 3.70357 24.226L10.7746 31.2971C13.3781 33.9006 17.5992 33.9006 20.2027 31.2971L31.9878 19.5119C33.2896 18.2102 33.2896 16.0996 31.9878 14.7979ZM6.06059 17.1549L17.8457 5.36981L29.6308 17.1549L26.7379 20.0478C26.7379 20.0478 5.11282 20.0478 5.11282 20.0205C5.10356 19.9194 5.09636 19.8157 5.09008 19.7091C5.03604 18.7916 5.35954 17.856 6.06059 17.1549Z" fill="#3399FF"/>
<path opacity="0.3" fill-rule="evenodd" clip-rule="evenodd" d="M33.334 36.6666C36.0954 36.6666 38.334 34.428 38.334 31.6666C38.334 28.9052 33.334 23.3333 33.334 23.3333C33.334 23.3333 28.334 28.9052 28.334 31.6666C28.334 34.428 30.5726 36.6666 33.334 36.6666Z" fill="#3399FF"/>
</svg>
