<svg width="40" height="40" viewBox="0 0 40 40" fill="none" xmlns="http://www.w3.org/2000/svg">
<path opacity="0.3" fill-rule="evenodd" clip-rule="evenodd" d="M6.40267 6.08809C5.87186 5.93527 5.33321 6.24585 5.19956 6.7818L0.931492 23.897C0.797842 24.4329 1.1198 24.9913 1.65061 25.1441L32.1037 33.9119C32.6345 34.0647 33.1732 33.7541 33.3068 33.2181L37.5749 16.103C37.7086 15.567 37.3866 15.0086 36.8558 14.8558L6.40267 6.08809ZM25.4403 21.7838C24.5626 25.3081 21.0811 27.3665 17.6642 26.3814C14.2472 25.3963 12.1887 21.7408 13.0664 18.2165C13.9441 14.6922 17.4256 12.6337 20.8426 13.6188C24.2595 14.6039 26.318 18.2595 25.4403 21.7838Z" fill="#E2D7FE"/>
<path fill-rule="evenodd" clip-rule="evenodd" d="M3.58789 10C3.03561 10 2.58789 10.4477 2.58789 11L2.58789 29C2.58789 29.5523 3.03561 30 3.58789 30L34.9212 30C35.4735 30 35.9212 29.5523 35.9212 29L35.9212 11C35.9212 10.4477 35.4735 10 34.9212 10L3.58789 10ZM25.6038 20C25.6038 23.6819 22.7611 26.6667 19.2546 26.6667C15.748 26.6667 12.9054 23.6819 12.9054 20C12.9054 16.3181 15.748 13.3333 19.2546 13.3333C22.7611 13.3333 25.6038 16.3181 25.6038 20ZM19.2546 23.3333C21.0078 23.3333 22.4292 21.8409 22.4292 20C22.4292 18.1591 21.0078 16.6667 19.2546 16.6667C17.5013 16.6667 16.08 18.1591 16.08 20C16.08 21.8409 17.5013 23.3333 19.2546 23.3333Z" fill="#F4F0FF"/>
</svg>
