<svg width="174" height="49" viewBox="0 0 174 49" fill="none" xmlns="http://www.w3.org/2000/svg">
  <rect x="0.24292" y="0.243225" width="46.9189" height="46.9189" rx="3.72973" fill="url(#paint0_linear_2154_1987)"/>
  <path d="M27.5081 23.6681L29.3937 21.7825L23.7369 16.1257L18.08 21.7825L19.9656 23.6681L22.4035 21.2302V31.2797H25.0702V21.2302L27.5081 23.6681Z" fill="#399929"/>
  <path fill-rule="evenodd" clip-rule="evenodd" d="M9.03564 33.036C9.03564 35.9815 11.4235 38.3693 14.369 38.3693H33.0356C35.9812 38.3693 38.369 35.9815 38.369 33.036V14.3693C38.369 11.4238 35.9812 9.03601 33.0356 9.03601H14.369C11.4235 9.03601 9.03564 11.4238 9.03564 14.3693V33.036ZM14.369 35.7027H33.0356C34.5084 35.7027 35.7023 34.5088 35.7023 33.036V14.3693C35.7023 12.8966 34.5084 11.7027 33.0356 11.7027H14.369C12.8962 11.7027 11.7023 12.8966 11.7023 14.3693V33.036C11.7023 34.5088 12.8962 35.7027 14.369 35.7027Z" fill="#399929"/>
  <line x1="74.8376" y1="4.9054" x2="164.351" y2="4.9054" stroke="#D4D4E7" stroke-width="5.5946" stroke-linecap="round"/>
  <line x1="73.9051" y1="15.1622" x2="117.729" y2="15.1622" stroke="#D4D4E7" stroke-width="3.72973" stroke-linecap="round"/>
  <path d="M78.8511 35.027L84.7494 45.2433H72.9528L78.8511 35.027Z" fill="#399929"/>
  <path d="M98.2515 44.2161V33.7729H102.772C103.707 33.7729 104.512 33.927 105.189 34.2354C105.865 34.5337 106.387 34.9664 106.755 35.5333C107.123 36.1002 107.307 36.7766 107.307 37.5623C107.307 38.3381 107.123 39.0094 106.755 39.5763C106.387 40.1333 105.865 40.561 105.189 40.8594C104.512 41.1577 103.707 41.3069 102.772 41.3069H99.5942L100.668 40.2477V44.2161H98.2515ZM104.89 44.2161L102.28 40.4267H104.861L107.501 44.2161H104.89ZM100.668 40.5162L99.5942 39.3824H102.638C103.384 39.3824 103.941 39.2233 104.309 38.905C104.677 38.5768 104.861 38.1292 104.861 37.5623C104.861 36.9854 104.677 36.5379 104.309 36.2196C103.941 35.9013 103.384 35.7422 102.638 35.7422H99.5942L100.668 34.5934V40.5162ZM112.266 46.0064V31.9826H113.757V46.0064H112.266ZM112.803 44.3952C111.967 44.3952 111.167 44.2857 110.401 44.0669C109.635 43.8382 109.018 43.5448 108.551 43.1867L109.371 41.3666C109.819 41.6849 110.346 41.9484 110.953 42.1573C111.569 42.3562 112.191 42.4557 112.818 42.4557C113.295 42.4557 113.678 42.4109 113.966 42.3214C114.265 42.222 114.484 42.0877 114.623 41.9186C114.762 41.7495 114.832 41.5556 114.832 41.3368C114.832 41.0583 114.722 40.8395 114.503 40.6803C114.285 40.5113 113.996 40.377 113.638 40.2775C113.28 40.1681 112.882 40.0687 112.445 39.9792C112.017 39.8797 111.584 39.7603 111.147 39.6211C110.719 39.4819 110.326 39.3028 109.968 39.084C109.61 38.8652 109.317 38.5768 109.088 38.2187C108.869 37.8607 108.76 37.4032 108.76 36.8462C108.76 36.2494 108.919 35.7074 109.237 35.22C109.565 34.7227 110.053 34.3299 110.699 34.0414C111.356 33.743 112.176 33.5939 113.161 33.5939C113.817 33.5939 114.464 33.6734 115.1 33.8326C115.737 33.9817 116.299 34.2105 116.786 34.5188L116.04 36.3539C115.553 36.0754 115.065 35.8715 114.578 35.7422C114.091 35.6029 113.613 35.5333 113.146 35.5333C112.678 35.5333 112.295 35.588 111.997 35.6974C111.699 35.8068 111.485 35.951 111.356 36.1301C111.226 36.2992 111.162 36.4981 111.162 36.7268C111.162 36.9954 111.271 37.2142 111.49 37.3833C111.709 37.5424 111.997 37.6717 112.355 37.7712C112.713 37.8706 113.106 37.9701 113.534 38.0695C113.971 38.169 114.404 38.2834 114.832 38.4127C115.269 38.542 115.667 38.716 116.025 38.9348C116.383 39.1536 116.672 39.4421 116.89 39.8001C117.119 40.1582 117.234 40.6107 117.234 41.1577C117.234 41.7446 117.069 42.2816 116.741 42.769C116.413 43.2563 115.921 43.6492 115.264 43.9476C114.618 44.246 113.797 44.3952 112.803 44.3952ZM124.363 44.2161V34.668L125.408 35.7123H122.275V33.7729H126.78V44.2161H124.363ZM133.219 44.3952C132.364 44.3952 131.598 44.1863 130.922 43.7686C130.245 43.3409 129.713 42.7242 129.325 41.9186C128.937 41.113 128.744 40.1383 128.744 38.9945C128.744 37.8507 128.937 36.876 129.325 36.0704C129.713 35.2648 130.245 34.6531 130.922 34.2354C131.598 33.8077 132.364 33.5939 133.219 33.5939C134.084 33.5939 134.85 33.8077 135.517 34.2354C136.193 34.6531 136.725 35.2648 137.113 36.0704C137.501 36.876 137.695 37.8507 137.695 38.9945C137.695 40.1383 137.501 41.113 137.113 41.9186C136.725 42.7242 136.193 43.3409 135.517 43.7686C134.85 44.1863 134.084 44.3952 133.219 44.3952ZM133.219 42.3513C133.627 42.3513 133.98 42.2369 134.278 42.0081C134.587 41.7794 134.825 41.4163 134.995 40.919C135.174 40.4217 135.263 39.7802 135.263 38.9945C135.263 38.2088 135.174 37.5673 134.995 37.07C134.825 36.5727 134.587 36.2096 134.278 35.9809C133.98 35.7521 133.627 35.6377 133.219 35.6377C132.821 35.6377 132.468 35.7521 132.16 35.9809C131.862 36.2096 131.623 36.5727 131.444 37.07C131.275 37.5673 131.19 38.2088 131.19 38.9945C131.19 39.7802 131.275 40.4217 131.444 40.919C131.623 41.4163 131.862 41.7794 132.16 42.0081C132.468 42.2369 132.821 42.3513 133.219 42.3513ZM138.918 46.5136L139.903 42.9331L140.231 44.2758C139.804 44.2758 139.451 44.1515 139.172 43.9028C138.904 43.6542 138.769 43.311 138.769 42.8734C138.769 42.4358 138.909 42.0877 139.187 41.8291C139.465 41.5705 139.809 41.4412 140.216 41.4412C140.634 41.4412 140.977 41.5755 141.246 41.844C141.514 42.1026 141.649 42.4457 141.649 42.8734C141.649 43.0027 141.639 43.132 141.619 43.2613C141.599 43.3807 141.559 43.5299 141.499 43.7089C141.45 43.878 141.365 44.0968 141.246 44.3653L140.395 46.5136H138.918ZM147.169 44.3952C146.314 44.3952 145.548 44.1863 144.871 43.7686C144.195 43.3409 143.663 42.7242 143.275 41.9186C142.887 41.113 142.693 40.1383 142.693 38.9945C142.693 37.8507 142.887 36.876 143.275 36.0704C143.663 35.2648 144.195 34.6531 144.871 34.2354C145.548 33.8077 146.314 33.5939 147.169 33.5939C148.034 33.5939 148.8 33.8077 149.466 34.2354C150.143 34.6531 150.675 35.2648 151.063 36.0704C151.451 36.876 151.645 37.8507 151.645 38.9945C151.645 40.1383 151.451 41.113 151.063 41.9186C150.675 42.7242 150.143 43.3409 149.466 43.7686C148.8 44.1863 148.034 44.3952 147.169 44.3952ZM147.169 42.3513C147.577 42.3513 147.93 42.2369 148.228 42.0081C148.537 41.7794 148.775 41.4163 148.944 40.919C149.123 40.4217 149.213 39.7802 149.213 38.9945C149.213 38.2088 149.123 37.5673 148.944 37.07C148.775 36.5727 148.537 36.2096 148.228 35.9809C147.93 35.7521 147.577 35.6377 147.169 35.6377C146.771 35.6377 146.418 35.7521 146.11 35.9809C145.811 36.2096 145.573 36.5727 145.394 37.07C145.225 37.5673 145.14 38.2088 145.14 38.9945C145.14 39.7802 145.225 40.4217 145.394 40.919C145.573 41.4163 145.811 41.7794 146.11 42.0081C146.418 42.2369 146.771 42.3513 147.169 42.3513ZM157.444 44.3952C156.588 44.3952 155.823 44.1863 155.146 43.7686C154.47 43.3409 153.938 42.7242 153.55 41.9186C153.162 41.113 152.968 40.1383 152.968 38.9945C152.968 37.8507 153.162 36.876 153.55 36.0704C153.938 35.2648 154.47 34.6531 155.146 34.2354C155.823 33.8077 156.588 33.5939 157.444 33.5939C158.309 33.5939 159.075 33.8077 159.741 34.2354C160.418 34.6531 160.95 35.2648 161.338 36.0704C161.726 36.876 161.919 37.8507 161.919 38.9945C161.919 40.1383 161.726 41.113 161.338 41.9186C160.95 42.7242 160.418 43.3409 159.741 43.7686C159.075 44.1863 158.309 44.3952 157.444 44.3952ZM157.444 42.3513C157.852 42.3513 158.205 42.2369 158.503 42.0081C158.811 41.7794 159.05 41.4163 159.219 40.919C159.398 40.4217 159.488 39.7802 159.488 38.9945C159.488 38.2088 159.398 37.5673 159.219 37.07C159.05 36.5727 158.811 36.2096 158.503 35.9809C158.205 35.7521 157.852 35.6377 157.444 35.6377C157.046 35.6377 156.693 35.7521 156.385 35.9809C156.086 36.2096 155.847 36.5727 155.668 37.07C155.499 37.5673 155.415 38.2088 155.415 38.9945C155.415 39.7802 155.499 40.4217 155.668 40.919C155.847 41.4163 156.086 41.7794 156.385 42.0081C156.693 42.2369 157.046 42.3513 157.444 42.3513ZM167.719 44.3952C166.863 44.3952 166.097 44.1863 165.421 43.7686C164.745 43.3409 164.213 42.7242 163.825 41.9186C163.437 41.113 163.243 40.1383 163.243 38.9945C163.243 37.8507 163.437 36.876 163.825 36.0704C164.213 35.2648 164.745 34.6531 165.421 34.2354C166.097 33.8077 166.863 33.5939 167.719 33.5939C168.584 33.5939 169.35 33.8077 170.016 34.2354C170.692 34.6531 171.225 35.2648 171.612 36.0704C172 36.876 172.194 37.8507 172.194 38.9945C172.194 40.1383 172 41.113 171.612 41.9186C171.225 42.7242 170.692 43.3409 170.016 43.7686C169.35 44.1863 168.584 44.3952 167.719 44.3952ZM167.719 42.3513C168.126 42.3513 168.479 42.2369 168.778 42.0081C169.086 41.7794 169.325 41.4163 169.494 40.919C169.673 40.4217 169.763 39.7802 169.763 38.9945C169.763 38.2088 169.673 37.5673 169.494 37.07C169.325 36.5727 169.086 36.2096 168.778 35.9809C168.479 35.7521 168.126 35.6377 167.719 35.6377C167.321 35.6377 166.968 35.7521 166.659 35.9809C166.361 36.2096 166.122 36.5727 165.943 37.07C165.774 37.5673 165.69 38.2088 165.69 38.9945C165.69 39.7802 165.774 40.4217 165.943 40.919C166.122 41.4163 166.361 41.7794 166.659 42.0081C166.968 42.2369 167.321 42.3513 167.719 42.3513Z" fill="#9F9FC4"/>
  <defs>
  <linearGradient id="paint0_linear_2154_1987" x1="0.00785299" y1="0.00786424" x2="47.4237" y2="47.4237" gradientUnits="userSpaceOnUse">
  <stop stop-color="#E3FFDE"/>
  <stop offset="1" stop-color="#E3FFDE" stop-opacity="0"/>
  </linearGradient>
  </defs>
  </svg>
