<svg width="40" height="40" viewBox="0 0 40 40" fill="none" xmlns="http://www.w3.org/2000/svg">
<path d="M36.9043 9.02455C37.4817 9.60196 37.4912 10.5352 36.9256 11.1242L21.2114 27.4888C20.9361 27.7755 20.5583 27.9412 20.1609 27.9495L13.5418 28.0884L13.681 21.454C13.6891 21.0657 13.8476 20.6956 14.123 20.4218L30.2006 4.43605C30.7869 3.85312 31.7343 3.85448 32.3189 4.43908L36.9043 9.02455Z" fill="#7ACC29"/>
<path opacity="0.3" d="M21.4999 3.33337C22.4204 3.33337 23.1666 4.07957 23.1666 5.00004C23.1666 5.92052 22.4204 6.66671 21.4999 6.66671H9.99992C8.15897 6.66671 6.66659 8.15909 6.66659 10V30C6.66659 31.841 8.15897 33.3334 9.99992 33.3334H29.9999C31.8409 33.3334 33.3333 31.841 33.3333 30V21.6667C33.3333 20.7462 34.0794 20 34.9999 20C35.9204 20 36.6666 20.7462 36.6666 21.6667V30C36.6666 33.6819 33.6818 36.6667 29.9999 36.6667H9.99992C6.31802 36.6667 3.33325 33.6819 3.33325 30V10C3.33325 6.31814 6.31802 3.33337 9.99992 3.33337H21.4999Z" fill="#7ACC29"/>
</svg>
