<svg width="32" height="32" viewBox="0 0 32 32" fill="none" xmlns="http://www.w3.org/2000/svg">
  <g clip-path="url(#clip0_3109_1043)">
  <path fill-rule="evenodd" clip-rule="evenodd" d="M1.66486 8.97784C1.85644 6.88603 3.63279 5.3335 5.73336 5.3335H26.4582C28.4746 5.3335 30.194 6.76896 30.3882 8.77592C30.5378 10.3222 30.6666 12.3084 30.6666 14.5643C30.6666 17.1342 30.4995 19.7046 30.3248 21.6894C30.1406 23.7819 28.367 25.3335 26.2664 25.3335H5.73336C3.63279 25.3335 1.85644 23.781 1.66486 21.6891C1.49393 19.8228 1.33325 17.4939 1.33325 15.3335C1.33325 13.1731 1.49393 10.8442 1.66486 8.97784Z" fill="currentColor"/>
  <path fill-rule="evenodd" clip-rule="evenodd" d="M13.8667 19.127C13.8667 19.6898 14.4971 20.0225 14.9617 19.7049L20.7407 15.7546C21.1466 15.4772 21.1475 14.8787 20.7424 14.6L14.9634 10.6248C14.499 10.3054 13.8667 10.6379 13.8667 11.2016V19.127Z" fill="#F8F8FF"/>
  </g>
  <defs>
  <clipPath id="clip0_3109_1043">
  <rect width="32" height="32" fill="white"/>
  </clipPath>
  </defs>
  </svg>
