<svg width="40" height="40" viewBox="0 0 40 40" fill="none" xmlns="http://www.w3.org/2000/svg">
<path opacity="0.3" d="M23.8221 27.8452C23.1713 27.1943 23.1713 26.139 23.8221 25.4882C24.473 24.8373 25.5283 24.8373 26.1792 25.4882L32.8458 32.1548C33.4967 32.8057 33.4967 33.861 32.8458 34.5118C32.195 35.1627 31.1397 35.1627 30.4888 34.5118L23.8221 27.8452Z" fill="#DF32B3"/>
<path fill-rule="evenodd" clip-rule="evenodd" d="M6.66602 18.3334C6.66602 24.7767 11.8894 30.0001 18.3327 30.0001C24.776 30.0001 29.9993 24.7767 29.9993 18.3334C29.9993 11.8901 24.776 6.66675 18.3327 6.66675C11.8894 6.66675 6.66602 11.8901 6.66602 18.3334ZM26.666 18.3334C26.666 22.9358 22.9351 26.6667 18.3327 26.6667C13.7303 26.6667 9.99935 22.9358 9.99935 18.3334C9.99935 13.731 13.7303 10.0001 18.3327 10.0001C22.9351 10.0001 26.666 13.731 26.666 18.3334Z" fill="#DF32B3"/>
<path opacity="0.3" fill-rule="evenodd" clip-rule="evenodd" d="M19.1667 15.5C19.1667 15.2239 18.9428 15 18.6667 15H18C17.7239 15 17.5 15.2239 17.5 15.5V17.5H15.5C15.2239 17.5 15 17.7239 15 18V18.6667C15 18.9428 15.2239 19.1667 15.5 19.1667H17.5V21.1667C17.5 21.4428 17.7239 21.6667 18 21.6667H18.6667C18.9428 21.6667 19.1667 21.4428 19.1667 21.1667V19.1667H21.1667C21.4428 19.1667 21.6667 18.9428 21.6667 18.6667V18C21.6667 17.7239 21.4428 17.5 21.1667 17.5H19.1667V15.5Z" fill="#C22199"/>
</svg>
